<svg id="Layer_1" data-name="Layer 1" xmlns="http://www.w3.org/2000/svg" viewBox="0 0 2000 2000"><defs><style>.cls-1{fill:#8f00ff;}.cls-2{fill:#fff;}</style></defs><rect class="cls-1" width="2000" height="2000"/><path class="cls-2" d="M551.35,923.87a135.49,135.49,0,0,0-191.82,0l-6.36,6.36-6.36-6.36A135.64,135.64,0,0,0,155,1115.7l6.37,6.36-.15.14L352.88,1314l.29-.14.14.14L545.14,1122.2l-.15-.14,6.36-6.36C604.26,1062.64,604.26,976.78,551.35,923.87Zm-89.19,184.31-3.47,3.47v.14L353.17,1217.32H353L247.5,1111.79l.14-.14-3.61-3.47A74.67,74.67,0,0,1,349.7,1002.66l3.47,3.47,3.47-3.47a74.61,74.61,0,0,1,105.52,105.52Z"/><path class="cls-2" d="M353.13,884.14a99.08,99.08,0,1,0-99.08-99.09A99.08,99.08,0,0,0,353.13,884.14Z"/><path class="cls-2" d="M771.11,954.23h-9.05c-2.15,0-4,1.22-5.55,3.64A14.69,14.69,0,0,0,754,965.1v7.65a19.84,19.84,0,0,1-.29,2.9,20.81,20.81,0,0,0-.31,2.93,5,5,0,0,0,.2,1.2,6.2,6.2,0,0,1,.2,1,40.39,40.39,0,0,1,.2,4.83v18.09a4.93,4.93,0,0,1-.29,1.51,5.05,5.05,0,0,0-.31,1.51,13.23,13.23,0,0,0,.51,2.93l.71,2.7c0,2.29.2,5.63.6,10a13.65,13.65,0,0,0,.6,2.81,8.42,8.42,0,0,1-.29,2,7.53,7.53,0,0,0-.31,1.82v2.81a43.39,43.39,0,0,1-.34,4.62c-.22,2-.33,3.48-.33,4.43q-.33,9.45-.66,14.48c-.31,6.7-.49,9.45-.49,8.23a31.29,31.29,0,0,0,.71,4.23,28.55,28.55,0,0,0,1.28,4.84,4.43,4.43,0,0,0,3.82,2.59,17,17,0,0,1,2.19.2,30.91,30.91,0,0,1,3.79,1.11,20.19,20.19,0,0,0,4.22,1.11,13.82,13.82,0,0,0,2.19-.29,12.73,12.73,0,0,1,2.4-.31c1.33,0,3.28,1.06,5.81,3.22,1.59,1.35,2.39,4.16,2.39,8.47,0,1.75-1,3.34-3,4.83-.69.27-1.58.71-2.73,1.31a21.93,21.93,0,0,0-2.93,1.82,6.47,6.47,0,0,1-3.81.88,37.37,37.37,0,0,1-4.24-.4h-5.63c-1.09,0-2.55.09-4.43.25l-3.93.31a31.61,31.61,0,0,0-3.32.46,20.54,20.54,0,0,1-3.42.4,6.8,6.8,0,0,1-2-.51,7.46,7.46,0,0,0-2-.51,9.35,9.35,0,0,0-3.12.91,8.79,8.79,0,0,1-3.33.91,31.4,31.4,0,0,1-7.25-.8c-3.88.54-6.16.8-6.85.8-.4,0-1.93-.13-4.61-.4-3.77-.53-5.66-2.55-5.66-6a7.55,7.55,0,0,1,.8-2.59,14,14,0,0,1,4.41-5.44c.67-.4,2.75-1.37,6.3-2.9s5.77-2.33,6.7-2.33a38.64,38.64,0,0,1,5-1.4c1.08-.26,2.15-1.79,3.21-4.61.27-.4.73-1,1.4-1.82a4.26,4.26,0,0,0,1-2.81v-8.83a9.23,9.23,0,0,0-.51-2.41,8.63,8.63,0,0,1-.49-2.4,44.61,44.61,0,0,1,.49-5.74,46.39,46.39,0,0,0,.51-5.52v-3.62a8.22,8.22,0,0,1,.4-2,9.13,9.13,0,0,0,.39-2.22c0-5.21-.06-9.05-.19-11.44a6.92,6.92,0,0,0-.29-1.71,7.32,7.32,0,0,1-.31-1.71c0-2.15.06-3.75.15-4.83a18.21,18.21,0,0,0,.64-3v-4.21a6.9,6.9,0,0,0-.15-1.4,6.37,6.37,0,0,1-.16-1.2c0-1.61-.06-3.9-.15-6.82a12.89,12.89,0,0,0-.18-1.71,16.46,16.46,0,0,1-.15-1.71,39,39,0,0,1,.4-4.72,41.71,41.71,0,0,0,.39-4.73,25.41,25.41,0,0,0-.22-4.21c-.17-.82-.35-1.75-.57-2.82,0-1.48.13-3.72.4-6.74s.39-5.25.39-6.71a3.86,3.86,0,0,0-.39-1.31,3.86,3.86,0,0,1-.4-1.51v-3.81a5.34,5.34,0,0,0-1.71-3.31,4.61,4.61,0,0,0-3.28-1.91,24.54,24.54,0,0,0-3.91.49,25,25,0,0,1-3.9.51q1.4,0-3.39-1-9-1.83-9-6.25,0-4.62,6.23-8.47c.13-.11,1.15-.93,3-2.42a4.88,4.88,0,0,1,3.61-1.39c.8,0,2,.06,3.53.2a30.8,30.8,0,0,1,3.32.4c1.47-.8,4.24-1.07,8.25-.8a12.11,12.11,0,0,1,4.64-1,8.19,8.19,0,0,1,1.22.2h1.19a19.65,19.65,0,0,0,5.15-1,20.76,20.76,0,0,1,5.94-1c.27,0,1.46.2,3.62.6a10.1,10.1,0,0,1,4.43-1.22,35.43,35.43,0,0,1,11.89,2,19.15,19.15,0,0,0,2.81,1.82c1.22.66,2.42,1.35,3.64,2,.66.54,1,1.82,1,3.82,0,3.77-1.13,6.52-3.42,8.27-1.62,1.2-4.5,2.15-8.67,2.82C772,954,770.71,954.23,771.11,954.23Z"/><path class="cls-2" d="M856.3,943.72c1.35-.15,3.35-.44,6.05-.88a14.18,14.18,0,0,1,5.83-2.71h10.27q4.62,1.43,11.89,3a24.84,24.84,0,0,0,4.83,2.41c.66.14,1.09.34,1.22.6a41.27,41.27,0,0,1,3,3.62,50.41,50.41,0,0,1,.91,5.54q.71,5.11.71,5.72a28.06,28.06,0,0,1-.82,5.21c-.66,3-1.06,4.84-1.19,5.63-.56,3.35-1.16,6.3-1.82,8.85a22.61,22.61,0,0,1-.2,2.6,78.64,78.64,0,0,1-4.44,9.84q-1.39,2.83-6.45,8.05a29.91,29.91,0,0,0-5.23,5.41,5.8,5.8,0,0,1-4,2.62,7,7,0,0,0-4.23,2.41c-1.75,2-3,3.15-3.84,3.42-2.15.8-3.35,1.26-3.61,1.4-5.66,3.08-8.41,7.38-8.27,12.86v1.82c0,.79,1.08,2.48,3.23,5a9.2,9.2,0,0,0,2.82,3.21,30.66,30.66,0,0,1,5.23,1l3.62,2.4a75.23,75.23,0,0,0,9.47,5.83c.82.53,2,1.42,3.63,2.61,2.55,2.16,6.37,5.35,11.49,9.65a61.85,61.85,0,0,1,5.43,3.81,35.75,35.75,0,0,0,2.62,3.82c4,4.28,6.16,6.89,6.45,7.83,1.2,5.36,1.8,8.18,1.8,8.44a21.35,21.35,0,0,1-2.22,10q-2.6,5.42-8.05,5.41c-4,0-7.72-2.46-11.06-7.45a34.33,34.33,0,0,0-4-6,94.09,94.09,0,0,1-7.65-6.65c-.55-.27-1.15-.6-1.82-1a34.59,34.59,0,0,0-7.05-4.84,28.39,28.39,0,0,1-7.25-2.81,5.29,5.29,0,0,1-2.42-2.84,25.17,25.17,0,0,0-1.4-2.82,8,8,0,0,0-4.14-2.41,13,13,0,0,1-2.71-.8c-.82-.8-2-1.89-3.63-3.22a13.72,13.72,0,0,0-9.47-3.23c-4.3,0-6.43,2.9-6.43,8.67a26.88,26.88,0,0,0,2.22,10.66c1.06,3.11,1.59,4.44,1.59,4a5.86,5.86,0,0,1-.2,1.42,5.65,5.65,0,0,0-.2,1.19q0,9.28-8.45,15.5a6.76,6.76,0,0,1-3,1.22,17,17,0,0,1-3.93-.31c-.73-.2-1.51-1.06-2.3-2.61s-1.22-4.06-1.22-7.54a5.76,5.76,0,0,0-.2-1.22V1086a24.17,24.17,0,0,1,.79-3.24c-.53-3.21-.79-5-.79-5.23a12.1,12.1,0,0,1,.4-2.51,13.16,13.16,0,0,0,.39-2.72v-3a9.4,9.4,0,0,1-.79-3.24,4,4,0,0,1,.4-1.31,3.71,3.71,0,0,0,.39-1.3,14.32,14.32,0,0,0-.39-2.62,13.75,13.75,0,0,1-.4-2.82,11.17,11.17,0,0,1,.26-1.9,11.39,11.39,0,0,0,.27-1.71c.18-1.89.26-5.52.26-10.89a103.07,103.07,0,0,0-.79-10.66,101.34,101.34,0,0,1-.8-10.69,12.32,12.32,0,0,1,.4-2.71,13.13,13.13,0,0,0,.4-2.52,32.15,32.15,0,0,0-.4-4.13,30.32,30.32,0,0,1-.4-3.92,10.76,10.76,0,0,1,.4-2.42,11.77,11.77,0,0,0,.4-2.42v-3l.55-5.26a61.16,61.16,0,0,0,.38-9.25,24.52,24.52,0,0,1,.84-5.25,24.19,24.19,0,0,0,.84-5.23,5,5,0,0,0-.2-1.2v-1.42a25.81,25.81,0,0,1,.31-3.33c.2-1.39.36-2.37.49-2.9V962.9c.29-.66.69-1.75,1.22-3.21.13-1.09.4-2.55.8-4.44a16.61,16.61,0,0,0,2.42-3.43c2.28-3.62,3.63-5.7,4-6.23a9.23,9.23,0,0,1,6.85-2.62,5.13,5.13,0,0,1,2.42-.62,15.5,15.5,0,0,1,2.91.42,15.39,15.39,0,0,0,2.92.4,2.31,2.31,0,0,1,1-.2,16.73,16.73,0,0,1,3.62.6,16.61,16.61,0,0,0,3.63.6C855,944.17,856.16,944,856.3,943.72Zm9.47,18.58a10.34,10.34,0,0,1-2.62-.42,11.93,11.93,0,0,0-2.62-.4h-1.22c-1.73,1-5.63,1.69-11.66,2.22-5,.27-8.4,1.69-10.29,4.24-.26.66-.66,1.68-1.2,3-.95,1.75-1.95,3.57-3,5.44a16.69,16.69,0,0,0-.82,6.05c0,1.35.06,3.21.2,5.63s.2,4.24.2,5.43a14.36,14.36,0,0,0,.31,2.42,15.12,15.12,0,0,1,.31,2.42,10.33,10.33,0,0,1-.42,2.41,11.11,11.11,0,0,0-.4,2.42v3c.13,1.33.2,2.35.2,3q0,7.24,5.45,7.25a10.07,10.07,0,0,0,4.41-.8l2.42-1.42a61.71,61.71,0,0,1,6.65-4.84,6,6,0,0,0,2.82-2.5c.69-1.15,1.55-2.46,2.62-3.95a17.91,17.91,0,0,0,3.12-2.9,23.4,23.4,0,0,0,2.53-3.13c.4-.66.93-1.48,1.6-2.42a9.17,9.17,0,0,1,2-1.61q2-2.4,6.45-6.64c.66-.42,1.53-.95,2.61-1.61,2.16-1.36,4-4.57,5.44-9.67l.6-2.42q0-8.25-10.67-10.27Z"/><path class="cls-2" d="M947.46,982.79a15.88,15.88,0,0,0,.28-2.52A26.82,26.82,0,0,0,947,975a28.53,28.53,0,0,1-.68-5.25,10,10,0,0,1,.2-2q.19-1.8,5.32-10.89c3.44-6,5.61-9.44,6.56-10.18a5.24,5.24,0,0,1,3.42-1.1,4.47,4.47,0,0,1,2-.4h2.22a16.73,16.73,0,0,0,2,.2,19.51,19.51,0,0,1,2.42-.2,28.91,28.91,0,0,0,5-1.42c.67-.27,1.86-.87,3.61-1.82a9.84,9.84,0,0,1,3.84-1.2,46.94,46.94,0,0,0,8-2.22v.2h.2v-.4a6.71,6.71,0,0,1,2.42-.39h1.42a39.24,39.24,0,0,1,3.92.28,42.35,42.35,0,0,0,4.32.31,1.2,1.2,0,0,1,1-.59c-.68,0,.74.53,4.22,1.59l4.43,1.22a81.8,81.8,0,0,0,8.27,1.22,20.59,20.59,0,0,1,7.45,4.24c1.87,1.75,3.48,5,4.84,9.69a45.09,45.09,0,0,1,1.59,10.91q0,2.63-2.81,10.88c-.4,1.49-.73,2.66-1,3.55s-1.95,3.66-5,8.38c-2.84,4.17-4.24,6.66-4.24,7.48,0,3.63,2.42,6.85,7.25,9.69,1.07.53,2,.93,2.62,1.19,1.33,1.36,2.35,2.38,3,3a45.26,45.26,0,0,1,5.24,20.8q0,8.68-4.42,22.82c-.15.4-.48,1.88-1,4.43a9.06,9.06,0,0,1-1.61,4.24,95,95,0,0,1-10.27,10.11c-1.2,1.62-2.44,3.24-3.73,4.83a14,14,0,0,1-4,3.64,20,20,0,0,1-3.33,1.62,37.69,37.69,0,0,0-3.63,2c-2.42,1-4.24,1.68-5.43,2.21l-5.75,4c-1.28.87-3.86,1.84-7.76,2.93a36.1,36.1,0,0,1-8.25,1.62h-6.65a11.61,11.61,0,0,0-1.91-.4,13.18,13.18,0,0,0-1.9-.2,23.93,23.93,0,0,0-3.13.29,25.5,25.5,0,0,1-3.13.31q-8.25,0-11.48-3a17.8,17.8,0,0,1-1.8-3.42c-1.35-3.23-2-5.19-2-5.85v-8.07a26.39,26.39,0,0,0-.51-4,26.89,26.89,0,0,1-.51-4,110,110,0,0,0-1.3-14,111.92,111.92,0,0,1-1.31-14,20.8,20.8,0,0,1,1.11-5.63,21.13,21.13,0,0,0,1.1-5.26c.14-1.88.2-4.77.2-8.67a11.62,11.62,0,0,0-.2-1.82v-1.62c0-.93.07-2.35.2-4.23s.2-3.28.2-4.24a28.38,28.38,0,0,0-.28-3.41,28.76,28.76,0,0,1-.32-3.44,13,13,0,0,1,.32-2.3,13.75,13.75,0,0,0,.28-2.33,15.18,15.18,0,0,0-.28-2.42,15.92,15.92,0,0,1-.32-2.22q-.2-5.45-.19-6.87A16.51,16.51,0,0,1,947.46,982.79Zm23.85,40.74c-3.34,1.48-5.49,2.81-6.45,4s-1.39,3.55-1.39,7a16,16,0,0,0,.24,2.33c.18,1,.33,1.71.44,2.11.22,3.37.4,7.58.51,12.68v5.06c.27,3.08.42,5,.42,5.83,0,4.83,1.13,8,3.44,9.47a24.8,24.8,0,0,0,7.12,1.62c5.7,2,9,3,10,3h2v-.2c.26,0,2.12-.62,5.63-1.82a12.63,12.63,0,0,0,1.82-.42,16.37,16.37,0,0,0,6-3.21c2-1.62,4-3.24,5.85-4.86a40.78,40.78,0,0,1,6.63-3.24,43.88,43.88,0,0,0,6.45-9.09,56.84,56.84,0,0,0,3.84-6.07,12.06,12.06,0,0,0,1-5.26c0-1.35-.07-2.68-.2-4a15,15,0,0,0-3.53-7.58,16.78,16.78,0,0,0-6.54-5.36,35.42,35.42,0,0,0-9.87-.8c-1.22-.4-2.15-.67-2.81-.82a49.13,49.13,0,0,0-9.47-1.82q-8.88-.6-13.7-.6A60.88,60.88,0,0,0,971.31,1023.53Zm1.2-59.83a18.5,18.5,0,0,1-2.61,1,9,9,0,0,0-1.6,2.42c-2.42,2.68-3.64,5.43-3.64,8.25a27,27,0,0,0,.6,4.72,25.85,25.85,0,0,1,.62,4.55,12.16,12.16,0,0,1-.2,2v1.8a52,52,0,0,0,0,6.45c-.29,2.55-.42,3.71-.42,3.42a18.87,18.87,0,0,0,1,5.85c.93,2.55,2.15,3.82,3.62,3.82.82,0,2.32-.8,4.54-2.42s3.79-2.48,4.72-2.62c2.55-.8,4.31-1.39,5.24-1.79a31.75,31.75,0,0,0,3.83-2c2-.67,3.68-1.22,5-1.62l2.81-2c1.76-.93,3.09-1.59,4-2a93.5,93.5,0,0,0,6.85-6.43c2.13-1.88,4.28-3.7,6.43-5.43,3-2.68,4.44-4.83,4.44-6.45a7.64,7.64,0,0,0-1.4-3.84q-3.23-5.82-12.91-8.65c-1.75-.53-3.08-1-4-1.22l-5.34-.28a31.3,31.3,0,0,1-4-.62,20.86,20.86,0,0,0-3.92-.49C982.87,960.09,978.3,961.28,972.51,963.7Z"/><path class="cls-2" d="M1176.54,1035.3a9.81,9.81,0,0,1-1-3.52v-2.42a19.43,19.43,0,0,1-.2-2.22,9.91,9.91,0,0,1,.2-1.71,12,12,0,0,0,.22-1.5q.79-12.28,1-12.69l1.19-2.41a21.13,21.13,0,0,0,1.22-4.44,27,27,0,0,1,1.42-3.64c.27-1.72,1.07-5,2.42-10s2.48-8.12,3.41-9.67,1.76-2.79,2.42-3.72c.93-1.62,1.62-2.82,2-3.64a17.7,17.7,0,0,1,3.81-2.62c1.22-1.06,2.15-1.93,2.84-2.61a45.73,45.73,0,0,0,2.82-4,75.09,75.09,0,0,1,7-5.65c2.13-1.89,4.34-3.68,6.63-5.43,2.84-2.16,5.36-3.22,7.67-3.22,1.46-.82,2.62-1.42,3.41-1.82a23.67,23.67,0,0,1,4-1.82c1.73-1.06,3.42-2.15,5-3.21,2.13-1.49,3.95-2.22,5.44-2.22a6.8,6.8,0,0,1,2.81-.4,15.46,15.46,0,0,1,8-1.82c2.84,0,5,.07,6.45.2.94.27,1.69.47,2.22.6,2.29.13,4,.2,5,.2a72,72,0,0,1,7.25,1.22q8.64,1.2,10.17,2.11a9.61,9.61,0,0,1,3,4.12,13.54,13.54,0,0,1,1.51,5.46,6.94,6.94,0,0,1-2.62,5,7.88,7.88,0,0,1-5.23,2.42,20.53,20.53,0,0,1-3.64-.51,19.07,19.07,0,0,0-3.61-.51,21.83,21.83,0,0,1-3.84-.2,129.24,129.24,0,0,1-18.94,1.42c-1.33,0-5.29.86-11.86,2.61-2,.8-3.57,1.49-4.63,2-1.49.4-2.62.73-3.44,1a38.19,38.19,0,0,0-5.63,5.23c-2,1.49-3.51,2.55-4.44,3.24A19.31,19.31,0,0,1,1216,976a43.28,43.28,0,0,0-3.42,4.43q-6.25,6.86-9.18,10.18c-1.93,2.22-3.37,6.47-4.32,12.79-.27,1.73-.8,6.37-1.6,13.88-.15.82-.49,2.42-1,4.84a23.32,23.32,0,0,0-.6,4.63,4.93,4.93,0,0,0,.4,1.82,4.54,4.54,0,0,1,.4,1.62V1033a8.6,8.6,0,0,0,.4,2,8.61,8.61,0,0,1,.42,2.22,15.12,15.12,0,0,1-.31,2.42,14.39,14.39,0,0,0-.31,2.41,11.56,11.56,0,0,0,2.82,7c1.61,1.89,2.83,3.24,3.63,4,.27.53,1.13,2.75,2.62,6.65a13,13,0,0,0,4,5.83,14.91,14.91,0,0,0,9.67,3.44,5.62,5.62,0,0,0,1.2-.2h1.22a75,75,0,0,1,12.28,1.4c3.35.53,4.64.8,3.82.8a5.12,5.12,0,0,1,2.61-.6h3.64c1.46.13,2.62.2,3.42.2a4.42,4.42,0,0,1,2.61-.6c2.55-2,7.67-3,15.32-3a9.55,9.55,0,0,1,5-2.21h1a19.2,19.2,0,0,1,3.63.2,10.26,10.26,0,0,1,4.73,4.23,11.36,11.36,0,0,1,2.12,6.23,6.32,6.32,0,0,1-1.81,4.24l-3.64,4c-3.62,1.6-6.36,2.88-8.25,3.82l-4,.62a21.51,21.51,0,0,0-2.81,2.19,7.08,7.08,0,0,1-4.84,1.42h-2.61a22.85,22.85,0,0,0-2.42-.2,8.36,8.36,0,0,0-4.52,1.47c-1.55,1-3,1.86-4.35,2.7a32.48,32.48,0,0,1-7.25,1.24c-2.42.56-3.35.84-2.82.84a14,14,0,0,1-4.52-1.1,13.43,13.43,0,0,0-4.54-1.11,5.65,5.65,0,0,0-3.11,1.11,5.71,5.71,0,0,1-2.73,1.1,16.41,16.41,0,0,1-5.34-1.41,21.88,21.88,0,0,0-4.12-1.42,9.61,9.61,0,0,0-1.71.2,9.1,9.1,0,0,1-1.71.22,12.11,12.11,0,0,1-8.27-3.24c-1.89-2.55-3.22-4.5-4-5.83a17.1,17.1,0,0,1-2-3.64c-1-2.68-1.69-4.72-2.22-6.14a12.52,12.52,0,0,0-1.62-3.13,16.05,16.05,0,0,0-2.22-2.19,55.43,55.43,0,0,1-6.43-13.11c-.28-1.46-.55-3.48-.82-6a5.86,5.86,0,0,1,.2-1.22v-1.39c0-.83-.06-2-.2-3.44s-.2-2.62-.2-3.42v-1.81a15.31,15.31,0,0,0,.2-2A10.08,10.08,0,0,0,1176.54,1035.3Z"/><path class="cls-2" d="M1324.37,1089.58a17.07,17.07,0,0,1-5,3.84c-.69.4-1.22.73-1.62,1a17.37,17.37,0,0,1-6.45,1.22c-1.6,0-3.18-.89-4.73-2.62a7.93,7.93,0,0,1-2.3-5.25,32.61,32.61,0,0,1,1.19-5.44,20.1,20.1,0,0,0,2-5,34.91,34.91,0,0,1,2.62-5,11.74,11.74,0,0,0,1.82-5.24,2.15,2.15,0,0,0-.4-1,1.81,1.81,0,0,1-.42-1,17.13,17.13,0,0,0,.91-2.53c.62-1.8,1-3.11,1.3-3.93,1.89-1.86,3.44-3.41,4.64-4.63.4-2,.66-3.55.82-4.64a25.43,25.43,0,0,1,1.79-3.41c1.22-3.35,2-5.37,2.33-6a4.15,4.15,0,0,0,.49-1.82,31.62,31.62,0,0,0,3.44-6,84.69,84.69,0,0,1,4.23-10.07c1.07-3.22,1.8-5.63,2.22-7.25a69.73,69.73,0,0,1,4.83-7,21.59,21.59,0,0,0,.2-2.22,10.27,10.27,0,0,1,1.4-2l1.42-4.23c1.73-3.08,3.08-5.37,4-6.85.82-3.35,1.36-5.84,1.62-7.45a13.22,13.22,0,0,1,.8-3.22,21.66,21.66,0,0,0,.82-2.84c1.2-2.13,2.17-3.86,2.91-5.12a42.8,42.8,0,0,1,2.72-4,19,19,0,0,1,2.62-2.92,15,15,0,0,0,2-6.83,31.11,31.11,0,0,0-1.42-7.87,7.26,7.26,0,0,1-.2-2.82c-.27-1.73-.4-2.42-.4-2a8.13,8.13,0,0,1,.51-2.3c.33-1,.58-1.71.71-2.11a31.42,31.42,0,0,0-.2-4c.13-1.22,1-2.39,2.51-3.52a7.53,7.53,0,0,1,4.32-1.71c4.57,0,7.32,1.13,8.27,3.42a147.06,147.06,0,0,1,2,14.9c.53,1.48,1,2.61,1.39,3.43.27,1.2.47,2.15.6,2.82l2.64,4a22.51,22.51,0,0,1,1.8,4q6.64,10.88,6.65,14.5a33.44,33.44,0,0,1-.31,3.84,31.26,31.26,0,0,0-.29,3.61,40.58,40.58,0,0,0,.8,8.27,16.49,16.49,0,0,0,5,8.25,25.33,25.33,0,0,1,1.42,4.24c.93,1.59,1.82,3.14,2.62,4.63a11.61,11.61,0,0,1,1.4,5c.42,5.1,1.37,8.72,2.92,10.87a19.91,19.91,0,0,0,3.73,4.23c2.42,2.16,3.92,3.86,4.54,5.15a21,21,0,0,0,1.91,3.32c.13.14.73,4,1.82,11.47a21.36,21.36,0,0,0,2.42,6.45,6.37,6.37,0,0,0,1.39,1.62,27.22,27.22,0,0,1,1.22,5.23,58.24,58.24,0,0,0,3.22,5,44.73,44.73,0,0,1,2.22,5.43c1.19,1.88,2.35,3.84,3.41,5.83.69,1.49,1,3.84,1,7a8.58,8.58,0,0,1-3,6.85,10.55,10.55,0,0,1-7.25,2.62,8.28,8.28,0,0,1-7.45-3.72c-1.6-2.49-3.08-5-4.41-7.54-.29-1.36-.49-2.55-.62-3.64-1.2-1.88-2.15-3-2.82-3.22a9.67,9.67,0,0,1-.6-2.61c-1.22-2-2.08-3.53-2.61-4.55s-1.16-2.17-1.82-3.52a12.05,12.05,0,0,1-1.2-3.22q-4.45-6.26-7.45-6.25,1.4,0-10.49,2.84a45.45,45.45,0,0,1-7.85.4c-3.63.79-6.32,1.48-8,2a55.19,55.19,0,0,1-11.88,1.6,14.69,14.69,0,0,1-6.46-1.2c-2.55-1.48-4.43-2.21-5.63-2.21l-6.85.2c-1.35.79-2.79,1.61-4.32,2.41s-2.33,1.82-2.33,3a3.68,3.68,0,0,0,.2,1v1.2a8.42,8.42,0,0,1-.4,2,8.56,8.56,0,0,0-.4,2.22,17.48,17.48,0,0,0,.51,3.13,18,18,0,0,1,.49,3.52A12.67,12.67,0,0,1,1324.37,1089.58Zm17.92-50.75c0,2.28,1.68,3.43,5,3.43a4.77,4.77,0,0,1,1.42-.2,19.22,19.22,0,0,1,3.61.6l3.44.8c6.43.53,11.27.89,14.5,1a18.84,18.84,0,0,1,3.53.51,21.45,21.45,0,0,0,4.52.51h1.82c2.55-.67,4.1-1.82,4.63-3.42a47.76,47.76,0,0,0,.2-6c0-2.28-1.08-4.9-3.21-7.85l-.62-2.22a10.94,10.94,0,0,1-1.2-2.81c-1-1.22-1.68-2.15-2.22-2.82-.79-1.22-1.42-4.1-1.81-8.67a5.66,5.66,0,0,0-1-1.9,4.82,4.82,0,0,1-1-2.53,3.87,3.87,0,0,1,.31-1.2,4.2,4.2,0,0,0,.31-1.42,9.34,9.34,0,0,0-.71-2.11,7.4,7.4,0,0,1-.71-2.72l-.4-7q-3.42-8.65-7.65-9.47c-1.75,1.22-2.71,1.88-2.84,2a36.64,36.64,0,0,0-4.41,7.26c-.4,1.88-.75,3.41-1,4.63a85.94,85.94,0,0,0-5.23,11.89,28.28,28.28,0,0,1-2.42,3.61c-.53,2.28-.93,4-1.2,5.14a10.52,10.52,0,0,1-1,2.73c-.8,2.68-1.4,4.77-1.82,6.23-.13.27-.73,1.55-1.79,3.84a11.4,11.4,0,0,0-1,5.23Z"/><path class="cls-2" d="M1501.81,943.72c1.35-.15,3.35-.44,6-.88a14.18,14.18,0,0,1,5.83-2.71H1524c3.08,1,7,2,11.88,3a25,25,0,0,0,4.84,2.41c.66.14,1.09.34,1.22.6a41.27,41.27,0,0,1,3,3.62,50.41,50.41,0,0,1,.91,5.54q.71,5.11.71,5.72a28.06,28.06,0,0,1-.82,5.21c-.66,3-1.06,4.84-1.2,5.63q-.83,5-1.81,8.85a22.61,22.61,0,0,1-.2,2.6,80.23,80.23,0,0,1-4.44,9.84q-1.39,2.83-6.45,8.05a29.91,29.91,0,0,0-5.23,5.41,5.8,5.8,0,0,1-4,2.62,7,7,0,0,0-4.23,2.41c-1.75,2-3,3.15-3.84,3.42-2.15.8-3.35,1.26-3.61,1.4-5.66,3.08-8.41,7.38-8.27,12.86v1.82c0,.79,1.08,2.48,3.23,5a9.2,9.2,0,0,0,2.82,3.21,30.84,30.84,0,0,1,5.23,1l3.62,2.4a75.23,75.23,0,0,0,9.47,5.83c.82.53,2,1.42,3.63,2.61,2.55,2.16,6.37,5.35,11.49,9.65a61.85,61.85,0,0,1,5.43,3.81,35.75,35.75,0,0,0,2.62,3.82c4,4.28,6.16,6.89,6.45,7.83,1.2,5.36,1.8,8.18,1.8,8.44a21.35,21.35,0,0,1-2.22,10q-2.6,5.42-8,5.41c-4,0-7.72-2.46-11.07-7.45a33.58,33.58,0,0,0-4-6,94.09,94.09,0,0,1-7.65-6.65c-.56-.27-1.15-.6-1.82-1a34.59,34.59,0,0,0-7-4.84,28.39,28.39,0,0,1-7.25-2.81,5.29,5.29,0,0,1-2.42-2.84,25.17,25.17,0,0,0-1.4-2.82,8,8,0,0,0-4.14-2.41,12.76,12.76,0,0,1-2.71-.8c-.82-.8-2-1.89-3.63-3.22a13.72,13.72,0,0,0-9.47-3.23c-4.3,0-6.43,2.9-6.43,8.67a27,27,0,0,0,2.21,10.66c1.07,3.11,1.6,4.44,1.6,4a6.41,6.41,0,0,1-.2,1.42,5.65,5.65,0,0,0-.2,1.19q0,9.28-8.45,15.5a6.76,6.76,0,0,1-3,1.22,17,17,0,0,1-3.93-.31c-.73-.2-1.51-1.06-2.31-2.61s-1.21-4.06-1.21-7.54a5.76,5.76,0,0,0-.2-1.22V1086a24.17,24.17,0,0,1,.79-3.24c-.53-3.21-.79-5-.79-5.23a12.63,12.63,0,0,1,.39-2.51,12.64,12.64,0,0,0,.4-2.72v-3a9.4,9.4,0,0,1-.79-3.24,4.13,4.13,0,0,1,.39-1.31,3.57,3.57,0,0,0,.4-1.3,13.71,13.71,0,0,0-.4-2.62,14.32,14.32,0,0,1-.39-2.82,10.22,10.22,0,0,1,.26-1.9,11.39,11.39,0,0,0,.27-1.71c.18-1.89.26-5.52.26-10.89a103.07,103.07,0,0,0-.79-10.66,101.34,101.34,0,0,1-.8-10.69,12.32,12.32,0,0,1,.4-2.71,13.13,13.13,0,0,0,.4-2.52,32.15,32.15,0,0,0-.4-4.13,30.32,30.32,0,0,1-.4-3.92,10.76,10.76,0,0,1,.4-2.42,11.77,11.77,0,0,0,.4-2.42v-3l.55-5.26a61.16,61.16,0,0,0,.38-9.25,24.52,24.52,0,0,1,.84-5.25,24.19,24.19,0,0,0,.84-5.23,5,5,0,0,0-.2-1.2v-1.42a25.81,25.81,0,0,1,.31-3.33c.2-1.39.36-2.37.49-2.9V962.9c.29-.66.69-1.75,1.22-3.21.13-1.09.4-2.55.8-4.44a17,17,0,0,0,2.42-3.43c2.28-3.62,3.63-5.7,4-6.23a9.23,9.23,0,0,1,6.85-2.62,5.13,5.13,0,0,1,2.42-.62,15.5,15.5,0,0,1,2.91.42,15.39,15.39,0,0,0,2.92.4,2.31,2.31,0,0,1,1-.2,16.73,16.73,0,0,1,3.62.6,16.61,16.61,0,0,0,3.63.6C1500.45,944.17,1501.67,944,1501.81,943.72Zm9.47,18.58a10.34,10.34,0,0,1-2.62-.42,11.93,11.93,0,0,0-2.62-.4h-1.22c-1.73,1-5.63,1.69-11.66,2.22-5,.27-8.4,1.69-10.29,4.24-.27.66-.66,1.68-1.2,3-1,1.75-2,3.57-3,5.44a16.69,16.69,0,0,0-.82,6.05c0,1.35.06,3.21.2,5.63s.2,4.24.2,5.43a14.36,14.36,0,0,0,.31,2.42,15.12,15.12,0,0,1,.31,2.42,10.33,10.33,0,0,1-.42,2.41,11.11,11.11,0,0,0-.4,2.42v3c.13,1.33.2,2.35.2,3q0,7.24,5.45,7.25a10.07,10.07,0,0,0,4.41-.8l2.42-1.42a61.71,61.71,0,0,1,6.65-4.84,6,6,0,0,0,2.82-2.5c.69-1.15,1.55-2.46,2.62-3.95a17.91,17.91,0,0,0,3.12-2.9,23.4,23.4,0,0,0,2.53-3.13c.4-.66.93-1.48,1.6-2.42a9.25,9.25,0,0,1,2-1.61q2-2.4,6.46-6.64c.66-.42,1.53-.95,2.61-1.61,2.15-1.36,4-4.57,5.44-9.67l.59-2.42c0-5.5-3.54-8.93-10.66-10.27Z"/><path class="cls-2" d="M1671.33,1095.64h-2.82c-1.22,0-3,0-5.28.13s-4.08.16-5.34.16a46.81,46.81,0,0,0-5.56.46,51.31,51.31,0,0,1-5.26.44q-7.29.21-22.06.4c-.8,0-2.09.07-3.84.2s-3.1.2-4,.2q-12.14,0-17.4-2a14,14,0,0,1-3.75-2.93,11.46,11.46,0,0,1-2.73-3.53,22.93,22.93,0,0,1-.2-4.43v-3.24a22.56,22.56,0,0,1,.91-5.06,22.46,22.46,0,0,0,.91-5v-7.27a2.29,2.29,0,0,1-.82-1.42,29.73,29.73,0,0,1,.82-3.64,9.92,9.92,0,0,0-.4-2.33,8.65,8.65,0,0,1-.42-2.1,27,27,0,0,1,.91-5.77,26.4,26.4,0,0,0,.91-4.74,23.16,23.16,0,0,0-1.73-9.49,13.2,13.2,0,0,1-1.46-3.33,42,42,0,0,1-1.27-6.16c-.37-2-.57-2.82-.57-2.42a6.8,6.8,0,0,1,.91-2.33c.59-1.13.9-3.46.9-7a10.93,10.93,0,0,1,1.11-4.44,10.09,10.09,0,0,0,1.11-3.43,2.41,2.41,0,0,0-.4-1.11,2.51,2.51,0,0,1-.42-.91,3.46,3.46,0,0,1,.42-1.31,3.91,3.91,0,0,0,.4-1.33,38.57,38.57,0,0,1-.2-7,11.26,11.26,0,0,0-.82-2.84,9.44,9.44,0,0,1-.4-3.44,12.92,12.92,0,0,0-.2-1.9,15,15,0,0,1-.2-1.93,15.89,15.89,0,0,1,.91-4.44,20.82,20.82,0,0,0,1-4.14c.07-.87.18-2.24.31-4.13a7.87,7.87,0,0,1,.31-1.53,6.92,6.92,0,0,0,.29-1.71c0-.79-.64-2.66-1.91-5.56a18.29,18.29,0,0,1-1.9-7c0-.14.33-1.56,1-4.24.14-.8.38-1.95.71-3.44a6.42,6.42,0,0,1,2.93-3.83,8.4,8.4,0,0,1,4.61-1.62,6.43,6.43,0,0,1,1.82-.2h2a6.1,6.1,0,0,0,2,.6,6.21,6.21,0,0,0,2.21-.6H1619a8.58,8.58,0,0,1,4.24-1c.4-.22,2.52-.33,6.43-.33a28.15,28.15,0,0,0,4.23-.87,53.83,53.83,0,0,0,7.85.62c.14,0,1-.06,2.62-.22a5.53,5.53,0,0,1,3.24-1,5.27,5.27,0,0,1,1.59-.2h5.66c.8-.46,3.61-.71,8.45-.71a18.88,18.88,0,0,1,4.63-.35l.8-.36c1.35,0,4,.94,7.87,2.78a36.52,36.52,0,0,1,5.63,1.79c1.89,1.2,2.82,3.57,2.82,7.14l-1.62,3.95a19.28,19.28,0,0,1-2.82,5.17q-2.62.76-7.65,2.57a6.38,6.38,0,0,1-2.61,1,27,27,0,0,0-4.64,0c-3.21.69-4.76,1-4.63,1a58.36,58.36,0,0,1-6.45-.51,61,61,0,0,0-6.44-.51,19.41,19.41,0,0,0-2.32.23c-1,.11-1.71.17-2.11.17-1.09,0-2.62.09-4.63.22-.67.14-1.56.34-2.62.6a91.35,91.35,0,0,1-12.29.6c.27,0-1.15.2-4.23.6a56.18,56.18,0,0,0-8.45,1.4c-3.1,1.22-4.63,3.28-4.63,6.23a15.47,15.47,0,0,0,1.19,5.61,19.55,19.55,0,0,1,1.22,3.41,6.24,6.24,0,0,1-1.22,2.91A6.36,6.36,0,0,0,1607,987v8.83a7.46,7.46,0,0,0,.71,2.9,8.11,8.11,0,0,1,.71,2.31c.79,4,4,6,9.49,6h9.29a14.17,14.17,0,0,0,2.5-.31c1.16-.2,1.95-.36,2.42-.49a5.83,5.83,0,0,1,1.53-.2,12.85,12.85,0,0,1,2.93.49,11.84,11.84,0,0,0,2.92.51h3a6.35,6.35,0,0,1,3.42-.6c.82-.82,2.57-1.22,5.25-1.22h1.62a33.32,33.32,0,0,1,3.64.31,32.8,32.8,0,0,0,3.63.31,22.17,22.17,0,0,1,4.44-.22,7.29,7.29,0,0,0,1.31-.2,7.32,7.32,0,0,1,1.33-.2,5.26,5.26,0,0,1,1.31.31,9.21,9.21,0,0,0,1,.31l5.57.4a1.82,1.82,0,0,1,.8-.2,30.94,30.94,0,0,0,3,.8q5.64,1.4,5.65,7.85a13.55,13.55,0,0,1-3.84,9.67c-.42.26-1,.59-1.81,1a24.58,24.58,0,0,1-4,3.41,21.53,21.53,0,0,1-9.69,2.42c-.29,0-1.66-.22-4.15-.71a43,43,0,0,0-8-.71,7.32,7.32,0,0,0-2.22.51,7.4,7.4,0,0,1-2.21.51h-6.88c-1.35-.33-3.19-.76-5.54-1.27a53.16,53.16,0,0,0-10.4-.75,34.57,34.57,0,0,0-7.47,1.62c-3.77,1.06-6,1.95-6.48,2.62q-.19.2-1.2,1.59l-.42,3.84a17,17,0,0,1-1,2.61,7.71,7.71,0,0,0-.82,3c0,1.22.87,3.44,2.58,6.65.57,1,.86,2.82.86,5.64a5.54,5.54,0,0,0,.29,1.41,6,6,0,0,1,.31,1.62v5.44q0,7.65,7.61,7.65a29.74,29.74,0,0,0,3.41-.31,26.41,26.41,0,0,1,3.39-.29,23.66,23.66,0,0,0,3.22.6c.53-.31,2.53-.45,6-.45a5.29,5.29,0,0,1,1.39-.15h4c.93-.67,2.59-1,5-1a3.13,3.13,0,0,1,1,.2h1.19a77.26,77.26,0,0,0,8.63.22,1.85,1.85,0,0,1,.8-.22,4.79,4.79,0,0,1,1.4.42,4.76,4.76,0,0,0,1.39.4h3.82a2.31,2.31,0,0,1,2-.82,12.49,12.49,0,0,1,2.51.42,13,13,0,0,0,2.5.4h7.43q2.79.2,6.81,3.19a4.34,4.34,0,0,1,1.79,3.59c0,5.06-.59,8.32-1.81,9.78a45.32,45.32,0,0,1-5.06,3.9c-2.57,1.8-4.19,2.71-4.86,2.71Z"/><path class="cls-2" d="M1735.43,1027.25a27.44,27.44,0,0,0-3.41-.31c-5.23,0-8.54-.33-9.87-1-2.28-1.22-3.41-4.16-3.41-8.87a39.14,39.14,0,0,1,.6-5.74,39.86,39.86,0,0,0,.59-5.74v-3.82l.8-3.21q1.83-8.88,2.62-13.5a87.35,87.35,0,0,1,5.05-9.07c.54-1.2.94-2.15,1.2-2.82l3-4.63a21,21,0,0,0,1-2.62,46.92,46.92,0,0,1,4.63-5.63q5.22-4.23,7.85-5.24c1.33-1.48,2.35-2.61,3-3.43a24.69,24.69,0,0,1,4-3c1.6-.8,3.22-1.55,4.84-2.22,1.59-1.33,2.81-2.41,3.61-3.21,2.55-1.62,4.7-2.42,6.45-2.42h2.62a6.31,6.31,0,0,0,1.42-.31,6,6,0,0,1,1.6-.31c-.14,0,1.15.09,3.83.22a14.35,14.35,0,0,1,3.82-.82,4.73,4.73,0,0,1,1.42-.2,26.86,26.86,0,0,1,5.34.8,24.87,24.87,0,0,0,5.32.82,26.4,26.4,0,0,1,5.85.4c.94.27,2.62.8,5,1.62a17.2,17.2,0,0,1,2,1.6c.93.68,1.59,1.15,2,1.41a6.71,6.71,0,0,1,1.2,2.42,12.44,12.44,0,0,1,1.62,4.84q0,12.06-12.28,12.08a28.75,28.75,0,0,1-6.15-1.71,25.64,25.64,0,0,0-8-1.73,18.31,18.31,0,0,0-2.81.31,18.88,18.88,0,0,1-2.84.31c-.93,0-2.42-.11-4.41-.31s-3.57-.31-4.64-.31a13.26,13.26,0,0,0-7.85,2.42c-2.3,1.6-4.63,3.26-7,5s-4.3,3-5.65,3.79a50.49,50.49,0,0,0-3.62,3.62,51.47,51.47,0,0,1-5.43,4,23,23,0,0,0-1.82,6.41c-.13.27-.53.93-1.22,2a5.45,5.45,0,0,0-1,2.61,9.69,9.69,0,0,0,1.82,5.5,5.21,5.21,0,0,0,4.41,2.71l4.44-.2a5.6,5.6,0,0,1,2.82-.6c1.21,0,2.92.09,5.14.29s3.86.31,4.94.31a3.64,3.64,0,0,1,2.22-.6,7.19,7.19,0,0,1,4.21-1,54.24,54.24,0,0,1,5.66-.4,61.62,61.62,0,0,1,10.07-3,9.35,9.35,0,0,1,5.43-1.42,4.34,4.34,0,0,1,2.22-.59,9,9,0,0,1,2.41.51,9.36,9.36,0,0,0,2.42.51c5.9.79,9.07,1.26,9.47,1.39a23.34,23.34,0,0,1,3,2.82c1.89,1.48,3.29,2.55,4.24,3.24a17.55,17.55,0,0,1,1.82,4,24.87,24.87,0,0,0,4,5.23c2.68,6.85,4,11,4,12.31,0,.53-.07,1.4-.2,2.62a24.69,24.69,0,0,0-.2,2.61v1.2a5.76,5.76,0,0,1,.2,1.22,9.57,9.57,0,0,1-1.71,5.63c-1.15,1.62-1.73,2.62-1.73,3a59.72,59.72,0,0,0-.6,6.85c-.8,2.95-1.48,5.17-2,6.65l-.79,3.62c-.14.28-1.09,2-2.82,5.14a55.7,55.7,0,0,1-3,5.14,13.21,13.21,0,0,1-2.83,1.8,63,63,0,0,1-10.07,9.87A76.3,76.3,0,0,0,1791,1085a28.21,28.21,0,0,1-7.25,3c-1.06.82-1.79,1.41-2.21,1.81a62,62,0,0,1-15.11,5.86,20.7,20.7,0,0,0-2.9,1.11,9.6,9.6,0,0,1-3.53.88,4.91,4.91,0,0,1-2.83-1,9.27,9.27,0,0,0-2-1.2c-7.54-2.42-11.88-4-13.1-4.64a29.83,29.83,0,0,1-2.82-1.73c-.67-.46-2.82-1-6.45-1.5-3.09-.4-5-1.13-5.64-2.22a9.37,9.37,0,0,1-1.19-2.42c-1.49-3-2.22-4.83-2.22-5.63a21.06,21.06,0,0,1,1.4-6.45c.4-1.6.66-2.82.82-3.62a11.58,11.58,0,0,1,1.79-2.61c1.49-2.29,2.89-3.44,4.24-3.44h5.83q2.63,0,9.07,4.52a44.73,44.73,0,0,0,4.23,2.24c1.89,1.51,3.35,2.66,4.44,3.48a27.61,27.61,0,0,0,10.47,1.84,17.14,17.14,0,0,1,4.23-.79,84.54,84.54,0,0,0,8-2.82,29.51,29.51,0,0,0,4.24-4.24c1.88-1.33,3.34-2.35,4.43-3a51.05,51.05,0,0,0,9.67-10.69q5.22-7.85,5.23-12.06a24.8,24.8,0,0,0-1-7.87c-.26-1.07-1.79-3.15-4.61-6.23s-4.64-4.82-5.46-5.15a6.21,6.21,0,0,0-2.41-.51,25,25,0,0,0-2.51.2,19.52,19.52,0,0,1-2.53.22c-.79,0-2-.06-3.72-.22s-2.93-.2-3.73-.2a16.67,16.67,0,0,0-4.52.91,16.77,16.77,0,0,1-4.55.91,23.26,23.26,0,0,0-4,.2c-1.09.53-1.88,1-2.42,1.22a30,30,0,0,1-9.66,2,24.64,24.64,0,0,0-4.84,1.39,20.88,20.88,0,0,1-7.25,1A27.74,27.74,0,0,1,1735.43,1027.25Z"/><circle class="cls-2" cx="1867.68" cy="1076.7" r="17.12"/></svg>