<svg width="1769" height="629" viewBox="0 0 1769 629" fill="none" xmlns="http://www.w3.org/2000/svg">
<path d="M435.471 237.89C422.886 225.277 407.937 215.271 391.479 208.443C375.021 201.616 357.379 198.102 339.561 198.102C321.744 198.102 304.101 201.616 287.643 208.443C271.186 215.271 256.236 225.277 243.651 237.89L237.291 244.25L230.931 237.89C205.437 212.723 171.022 198.663 135.199 198.779C99.3755 198.896 65.0528 213.179 39.723 238.512C14.3932 263.844 0.113423 298.168 0.00067276 333.992C-0.112078 369.815 13.9514 404.229 39.1212 429.72L45.4912 436.08L45.3412 436.22L237.001 628.02L237.291 627.88L237.431 628.02L429.261 436.22L429.111 436.08L435.471 429.72C488.381 376.66 488.381 290.8 435.471 237.89ZM346.281 422.2L342.811 425.67V425.81L237.291 531.34H237.121L131.621 425.81L131.761 425.67L128.151 422.2C114.367 408.144 106.691 389.214 106.793 369.527C106.896 349.84 114.77 330.991 128.7 317.08C142.631 303.169 161.492 295.322 181.178 295.247C200.865 295.173 219.785 302.875 233.821 316.68L237.291 320.15L240.761 316.68C254.754 302.687 273.732 294.826 293.521 294.826C313.31 294.826 332.288 302.687 346.281 316.68C360.274 330.673 368.135 349.651 368.135 369.44C368.135 389.229 360.274 408.207 346.281 422.2V422.2Z" fill="white"/>
<path d="M237.251 198.16C256.847 198.16 276.003 192.349 292.296 181.463C308.59 170.576 321.289 155.103 328.788 136.999C336.288 118.895 338.251 98.9735 334.428 79.7542C330.606 60.5348 321.171 42.8804 307.315 29.0235C293.459 15.1665 275.806 5.72921 256.587 1.90505C237.368 -1.9191 217.447 0.0416107 199.342 7.53921C181.237 15.0368 165.762 27.7346 154.874 44.0269C143.986 60.3192 138.173 79.4743 138.171 99.07C138.17 112.082 140.732 124.967 145.711 136.989C150.689 149.012 157.987 159.935 167.188 169.137C176.388 178.338 187.311 185.637 199.333 190.617C211.354 195.597 224.239 198.16 237.251 198.16V198.16Z" fill="white"/>
<path d="M655.231 268.25H646.181C644.031 268.25 642.181 269.47 640.631 271.89C639.17 274.036 638.304 276.531 638.121 279.12V286.77C638.096 287.743 637.999 288.712 637.831 289.67C637.659 290.638 637.555 291.617 637.521 292.6C637.539 293.007 637.606 293.41 637.721 293.8C637.815 294.127 637.882 294.462 637.921 294.8C638.084 296.405 638.151 298.017 638.121 299.63V317.72C638.104 318.235 638.006 318.745 637.831 319.23C637.651 319.715 637.547 320.224 637.521 320.74C637.581 321.733 637.752 322.716 638.031 323.67L638.741 326.37C638.741 328.66 638.941 332 639.341 336.37C639.442 337.325 639.643 338.267 639.941 339.18C639.925 339.856 639.828 340.527 639.651 341.18C639.474 341.772 639.37 342.383 639.341 343V345.81C639.31 347.355 639.197 348.897 639.001 350.43C638.781 352.43 638.671 353.91 638.671 354.86C638.451 361.16 638.231 365.987 638.011 369.34C637.701 376.04 637.521 378.79 637.521 377.57C637.661 378.995 637.898 380.408 638.231 381.8C638.515 383.448 638.944 385.067 639.511 386.64C639.849 387.381 640.383 388.015 641.057 388.472C641.731 388.929 642.518 389.191 643.331 389.23C644.065 389.249 644.796 389.316 645.521 389.43C646.807 389.719 648.073 390.09 649.311 390.54C650.674 391.061 652.089 391.434 653.531 391.65C654.268 391.612 655 391.515 655.721 391.36C656.51 391.181 657.313 391.077 658.121 391.05C659.451 391.05 661.401 392.11 663.931 394.27C665.521 395.62 666.321 398.43 666.321 402.74C666.321 404.49 665.321 406.08 663.321 407.57C662.631 407.84 661.741 408.28 660.591 408.88C659.568 409.409 658.589 410.017 657.661 410.7C656.512 411.379 655.182 411.687 653.851 411.58C652.431 411.527 651.016 411.394 649.611 411.18H643.981C642.891 411.18 641.431 411.27 639.551 411.43L635.621 411.74C634.507 411.835 633.399 411.988 632.301 412.2C631.174 412.429 630.03 412.563 628.881 412.6C628.193 412.533 627.518 412.361 626.881 412.09C626.241 411.828 625.568 411.657 624.881 411.58C623.796 411.699 622.74 412.007 621.761 412.49C620.722 413.01 619.591 413.32 618.431 413.4C615.992 413.416 613.559 413.147 611.181 412.6C607.301 413.14 605.021 413.4 604.331 413.4C603.931 413.4 602.401 413.27 599.721 413C595.951 412.47 594.061 410.45 594.061 407C594.17 406.096 594.441 405.218 594.861 404.41C595.847 402.252 597.364 400.38 599.271 398.97C599.941 398.57 602.021 397.6 605.571 396.07C609.121 394.54 611.341 393.74 612.271 393.74C613.905 393.162 615.575 392.694 617.271 392.34C618.351 392.08 619.421 390.55 620.481 387.73C620.751 387.33 621.211 386.73 621.881 385.91C622.542 385.125 622.897 384.127 622.881 383.1V374.27C622.82 373.448 622.648 372.637 622.371 371.86C622.095 371.087 621.93 370.279 621.881 369.46C621.921 367.538 622.084 365.621 622.371 363.72C622.651 361.892 622.821 360.049 622.881 358.2V354.58C622.931 353.899 623.065 353.228 623.281 352.58C623.502 351.859 623.633 351.113 623.671 350.36C623.671 345.15 623.611 341.31 623.481 338.92C623.457 338.34 623.359 337.766 623.191 337.21C623.02 336.654 622.916 336.08 622.881 335.5C622.881 333.35 622.941 331.75 623.031 330.67C623.329 329.69 623.543 328.686 623.671 327.67V323.46C623.669 322.989 623.619 322.52 623.521 322.06C623.43 321.666 623.376 321.264 623.361 320.86C623.361 319.25 623.301 316.96 623.211 314.04C623.189 313.467 623.129 312.895 623.031 312.33C622.952 311.763 622.902 311.192 622.881 310.62C622.919 309.04 623.052 307.464 623.281 305.9C623.501 304.332 623.631 302.753 623.671 301.17C623.715 299.763 623.641 298.355 623.451 296.96C623.281 296.14 623.101 295.21 622.881 294.14C622.881 292.66 623.011 290.42 623.281 287.4C623.551 284.38 623.671 282.15 623.671 280.69C623.62 280.234 623.488 279.79 623.281 279.38C623.046 278.909 622.91 278.395 622.881 277.87V274.06C622.727 272.787 622.12 271.612 621.171 270.75C620.791 270.217 620.302 269.771 619.737 269.442C619.171 269.112 618.542 268.907 617.891 268.84C616.577 268.898 615.269 269.062 613.981 269.33C612.697 269.602 611.393 269.773 610.081 269.84C611.015 269.84 609.885 269.507 606.691 268.84C600.691 267.62 597.691 265.537 597.691 262.59C597.691 259.51 599.768 256.687 603.921 254.12C604.051 254.01 605.071 253.19 606.921 251.7C607.396 251.235 607.962 250.871 608.583 250.632C609.203 250.393 609.867 250.283 610.531 250.31C611.331 250.31 612.531 250.37 614.061 250.51C615.174 250.583 616.283 250.717 617.381 250.91C618.851 250.11 621.621 249.84 625.631 250.11C627.097 249.474 628.674 249.134 630.271 249.11C630.682 249.146 631.09 249.213 631.491 249.31H632.681C634.435 249.208 636.167 248.872 637.831 248.31C639.752 247.69 641.753 247.353 643.771 247.31C644.041 247.31 645.231 247.51 647.391 247.91C648.755 247.168 650.271 246.751 651.821 246.69C655.87 246.672 659.891 247.349 663.711 248.69C664.593 249.378 665.533 249.987 666.521 250.51C667.741 251.17 668.941 251.86 670.161 252.51C670.821 253.05 671.161 254.33 671.161 256.33C671.161 260.1 670.031 262.85 667.741 264.6C666.121 265.8 663.241 266.75 659.071 267.42C656.121 268.02 654.831 268.25 655.231 268.25Z" fill="white"/>
<path d="M740.421 257.74C741.771 257.59 743.771 257.3 746.471 256.86C748.181 255.522 750.176 254.595 752.301 254.15H762.571C765.651 255.103 769.615 256.103 774.461 257.15C775.979 258.126 777.598 258.934 779.291 259.56C779.951 259.7 780.381 259.9 780.511 260.16C781.579 261.309 782.581 262.517 783.511 263.78C783.917 265.608 784.221 267.458 784.421 269.32C784.895 272.727 785.131 274.633 785.131 275.04C785.022 276.799 784.748 278.543 784.311 280.25C783.651 283.25 783.251 285.09 783.121 285.88C782.561 289.23 781.961 292.18 781.301 294.73C781.285 295.6 781.218 296.468 781.101 297.33C779.848 300.708 778.365 303.996 776.661 307.17C775.735 309.057 773.585 311.74 770.211 315.22C768.247 316.796 766.49 318.614 764.981 320.63C764.539 321.326 763.954 321.92 763.264 322.371C762.574 322.823 761.796 323.123 760.981 323.25C759.328 323.521 757.828 324.376 756.751 325.66C755.001 327.66 753.751 328.81 752.911 329.08C750.761 329.88 749.561 330.34 749.301 330.48C743.641 333.56 740.891 337.86 741.031 343.34V345.16C741.031 345.95 742.111 347.64 744.261 350.16C744.936 351.437 745.902 352.536 747.081 353.37C748.85 353.551 750.6 353.886 752.311 354.37L755.931 356.77C758.94 358.944 762.105 360.893 765.401 362.6C766.221 363.13 767.401 364.02 769.031 365.21C771.581 367.37 775.401 370.56 780.521 374.86C782.398 376.032 784.211 377.304 785.951 378.67C786.741 379.999 787.616 381.275 788.571 382.49C792.571 386.77 794.731 389.38 795.021 390.32C796.221 395.68 796.821 398.5 796.821 398.76C796.904 402.224 796.142 405.656 794.601 408.76C792.868 412.373 790.185 414.177 786.551 414.17C782.551 414.17 778.831 411.71 775.491 406.72C774.372 404.585 773.032 402.574 771.491 400.72C768.824 398.642 766.27 396.423 763.841 394.07C763.291 393.8 762.691 393.47 762.021 393.07C759.881 391.171 757.512 389.545 754.971 388.23C752.437 387.63 749.998 386.685 747.721 385.42C746.596 384.799 745.736 383.789 745.301 382.58C744.894 381.612 744.426 380.67 743.901 379.76C742.8 378.553 741.355 377.712 739.761 377.35C738.832 377.183 737.923 376.914 737.051 376.55C736.231 375.75 735.051 374.66 733.421 373.33C730.784 371.1 727.402 369.946 723.951 370.1C719.651 370.1 717.521 373 717.521 378.77C717.526 382.438 718.282 386.065 719.741 389.43C720.801 392.54 721.331 393.87 721.331 393.43C721.323 393.91 721.256 394.387 721.131 394.85C721.022 395.238 720.955 395.637 720.931 396.04C720.931 402.227 718.115 407.393 712.481 411.54C711.595 412.184 710.565 412.602 709.481 412.76C708.164 412.809 706.845 412.705 705.551 412.45C704.821 412.25 704.041 411.39 703.251 409.84C702.461 408.29 702.031 405.78 702.031 402.3C702.009 401.887 701.942 401.478 701.831 401.08V400.02C702.02 398.923 702.284 397.841 702.621 396.78C702.091 393.57 701.831 391.78 701.831 391.55C701.876 390.702 702.01 389.86 702.231 389.04C702.456 388.149 702.587 387.238 702.621 386.32V383.32C702.167 382.296 701.899 381.199 701.831 380.08C701.888 379.624 702.024 379.18 702.231 378.77C702.44 378.364 702.572 377.924 702.621 377.47C702.573 376.586 702.442 375.709 702.231 374.85C702.001 373.926 701.867 372.981 701.831 372.03C701.863 371.39 701.95 370.755 702.091 370.13C702.224 369.568 702.315 368.996 702.361 368.42C702.541 366.53 702.621 362.9 702.621 357.53C702.543 353.965 702.279 350.407 701.831 346.87C701.376 343.323 701.109 339.755 701.031 336.18C701.063 335.265 701.198 334.356 701.431 333.47C701.646 332.645 701.78 331.801 701.831 330.95C701.787 329.566 701.653 328.187 701.431 326.82C701.213 325.523 701.079 324.214 701.031 322.9C701.072 322.081 701.206 321.269 701.431 320.48C701.649 319.69 701.783 318.878 701.831 318.06V315.06L702.381 309.8C702.741 306.731 702.869 303.639 702.761 300.55C702.85 298.775 703.132 297.014 703.601 295.3C704.072 293.593 704.354 291.839 704.441 290.07C704.424 289.663 704.357 289.26 704.241 288.87V287.45C704.273 286.334 704.376 285.222 704.551 284.12C704.751 282.73 704.911 281.75 705.041 281.22V276.92C705.331 276.26 705.731 275.17 706.261 273.71C706.391 272.62 706.661 271.16 707.061 269.27C708.01 268.234 708.823 267.081 709.481 265.84C711.761 262.22 713.111 260.14 713.481 259.61C714.383 258.728 715.457 258.041 716.635 257.59C717.813 257.14 719.071 256.935 720.331 256.99C721.075 256.587 721.906 256.374 722.751 256.37C723.732 256.417 724.707 256.558 725.661 256.79C726.62 257.016 727.597 257.15 728.581 257.19C728.896 257.05 729.237 256.981 729.581 256.99C730.806 257.057 732.02 257.258 733.201 257.59C734.385 257.924 735.603 258.125 736.831 258.19C739.121 258.19 740.281 258.02 740.421 257.74ZM749.891 276.32C749.004 276.293 748.123 276.152 747.271 275.9C746.416 275.67 745.537 275.536 744.651 275.5H743.431C741.701 276.5 737.801 277.19 731.771 277.72C726.771 277.99 723.371 279.41 721.481 281.96C721.221 282.62 720.821 283.64 720.281 284.96C719.331 286.71 718.331 288.53 717.281 290.4C716.638 292.349 716.36 294.4 716.461 296.45C716.461 297.8 716.521 299.66 716.661 302.08C716.801 304.5 716.861 306.32 716.861 307.51C716.896 308.324 716.999 309.134 717.171 309.93C717.34 310.727 717.443 311.536 717.481 312.35C717.437 313.167 717.296 313.976 717.061 314.76C716.839 315.549 716.705 316.361 716.661 317.18V320.18C716.791 321.51 716.861 322.53 716.861 323.18C716.861 328.007 718.678 330.423 722.311 330.43C723.823 330.498 725.33 330.225 726.721 329.63L729.141 328.21C731.248 326.451 733.469 324.834 735.791 323.37C736.975 322.861 737.964 321.985 738.611 320.87C739.301 319.72 740.161 318.41 741.231 316.92C742.383 316.081 743.43 315.107 744.351 314.02C745.283 313.051 746.129 312.004 746.881 310.89C747.281 310.23 747.811 309.41 748.481 308.47C749.069 307.842 749.742 307.3 750.481 306.86C751.815 305.26 753.965 303.047 756.931 300.22C757.591 299.8 758.461 299.27 759.541 298.61C761.701 297.25 763.541 294.04 764.981 288.94L765.581 286.52C765.581 281.02 762.025 277.597 754.911 276.25L749.891 276.32Z" fill="white"/>
<path d="M831.581 296.81C831.742 295.979 831.835 295.136 831.861 294.29C831.79 292.513 831.542 290.748 831.121 289.02C830.732 287.295 830.505 285.537 830.441 283.77C830.441 283.098 830.508 282.428 830.641 281.77C830.768 280.57 832.541 276.94 835.961 270.88C839.401 264.88 841.571 261.44 842.521 260.7C843.496 259.942 844.707 259.552 845.941 259.6C846.568 259.314 847.253 259.177 847.941 259.2H850.161C850.823 259.307 851.491 259.374 852.161 259.4C852.963 259.283 853.771 259.216 854.581 259.2C856.287 258.878 857.961 258.403 859.581 257.78C860.251 257.51 861.441 256.91 863.191 255.96C864.375 255.3 865.682 254.891 867.031 254.76C869.758 254.258 872.435 253.515 875.031 252.54V252.74H875.231V252.34C876.007 252.063 876.828 251.93 877.651 251.95H879.071C880.382 251.978 881.69 252.071 882.991 252.23C884.425 252.407 885.867 252.51 887.311 252.54C887.414 252.365 887.56 252.219 887.735 252.116C887.91 252.013 888.108 251.956 888.311 251.95C887.631 251.95 889.051 252.48 892.531 253.54L896.961 254.76C899.695 255.307 902.456 255.715 905.231 255.98C907.985 256.855 910.523 258.3 912.681 260.22C914.551 261.97 916.161 265.22 917.521 269.91C918.496 273.468 919.03 277.132 919.111 280.82C919.111 282.573 918.175 286.2 916.301 291.7C915.901 293.19 915.571 294.36 915.301 295.25C915.031 296.14 913.351 298.91 910.301 303.63C907.461 307.8 906.061 310.29 906.061 311.11C906.061 314.74 908.481 317.96 913.311 320.8C914.381 321.33 915.311 321.73 915.931 321.99C917.261 323.35 918.281 324.37 918.931 324.99C922.32 331.403 924.117 338.537 924.171 345.79C924.171 351.577 922.698 359.183 919.751 368.61C919.601 369.01 919.271 370.49 918.751 373.04C918.583 374.567 918.029 376.026 917.141 377.28C913.979 380.905 910.546 384.285 906.871 387.39C905.671 389.01 904.431 390.63 903.141 392.22C902.057 393.682 900.699 394.918 899.141 395.86C898.084 396.502 896.969 397.044 895.811 397.48C894.566 398.08 893.354 398.747 892.181 399.48C889.761 400.48 887.941 401.16 886.751 401.69L881.001 405.69C879.721 406.56 877.141 407.53 873.241 408.62C870.564 409.48 867.795 410.023 864.991 410.24H858.341C857.717 410.053 857.078 409.919 856.431 409.84C855.804 409.727 855.169 409.661 854.531 409.64C853.483 409.668 852.437 409.765 851.401 409.93C850.365 410.098 849.32 410.201 848.271 410.24C842.771 410.24 838.945 409.24 836.791 407.24C836.069 406.169 835.465 405.022 834.991 403.82C833.641 400.59 832.991 398.63 832.991 397.97V389.9C832.924 388.556 832.753 387.218 832.481 385.9C832.211 384.581 832.041 383.244 831.971 381.9C831.837 377.21 831.403 372.534 830.671 367.9C829.942 363.265 829.504 358.59 829.361 353.9C829.469 351.981 829.843 350.086 830.471 348.27C831.06 346.571 831.43 344.803 831.571 343.01C831.711 341.13 831.771 338.24 831.771 334.34C831.753 333.729 831.686 333.121 831.571 332.52V330.9C831.571 329.97 831.641 328.55 831.771 326.67C831.901 324.79 831.971 323.39 831.971 322.43C831.947 321.289 831.853 320.15 831.691 319.02C831.516 317.881 831.409 316.732 831.371 315.58C831.409 314.805 831.516 314.036 831.691 313.28C831.851 312.513 831.945 311.733 831.971 310.95C831.943 310.137 831.849 309.328 831.691 308.53C831.533 307.798 831.426 307.057 831.371 306.31C831.238 302.677 831.175 300.387 831.181 299.44C831.244 298.554 831.378 297.675 831.581 296.81V296.81ZM855.431 337.55C852.091 339.03 849.941 340.36 848.981 341.55C848.021 342.74 847.591 345.1 847.591 348.55C847.614 349.332 847.695 350.11 847.831 350.88C848.011 351.88 848.161 352.59 848.271 352.99C848.491 356.36 848.671 360.57 848.781 365.67V370.73C849.051 373.81 849.201 375.73 849.201 376.56C849.201 381.39 850.331 384.56 852.641 386.03C854.922 386.918 857.321 387.464 859.761 387.65C865.461 389.65 868.761 390.65 869.761 390.65H871.761V390.45C872.021 390.45 873.881 389.83 877.391 388.63C878.008 388.535 878.616 388.395 879.211 388.21C881.414 387.572 883.458 386.478 885.211 385C887.211 383.38 889.211 381.76 891.061 380.14C893.169 378.862 895.388 377.777 897.691 376.9C900.219 374.157 902.386 371.102 904.141 367.81C905.548 365.87 906.831 363.842 907.981 361.74C908.705 360.084 909.046 358.286 908.981 356.48C908.981 355.13 908.911 353.8 908.781 352.48C908.347 349.67 907.123 347.041 905.251 344.9C903.565 342.584 901.313 340.739 898.711 339.54C895.475 338.813 892.153 338.543 888.841 338.74C887.621 338.34 886.691 338.07 886.031 337.92C882.942 337.004 879.77 336.395 876.561 336.1C870.641 335.7 866.075 335.5 862.861 335.5C860.344 336.026 857.862 336.71 855.431 337.55ZM856.631 277.72C855.788 278.119 854.915 278.453 854.021 278.72C853.361 279.435 852.82 280.252 852.421 281.14C850.001 283.82 848.781 286.57 848.781 289.39C848.842 290.978 849.043 292.557 849.381 294.11C849.723 295.605 849.93 297.128 850.001 298.66C849.99 299.331 849.923 300 849.801 300.66V302.46C849.668 304.608 849.668 306.762 849.801 308.91C849.511 311.46 849.381 312.62 849.381 312.33C849.404 314.321 849.742 316.295 850.381 318.18C851.311 320.73 852.531 322 854.001 322C854.821 322 856.321 321.2 858.541 319.58C860.761 317.96 862.331 317.1 863.261 316.96C865.811 316.16 867.571 315.57 868.501 315.17C869.822 314.591 871.102 313.923 872.331 313.17C874.331 312.5 876.011 311.95 877.331 311.55L880.141 309.55C881.901 308.62 883.231 307.96 884.141 307.55C886.531 305.523 888.817 303.377 890.991 301.12C893.121 299.24 895.271 297.42 897.421 295.69C900.421 293.01 901.861 290.86 901.861 289.24C901.752 287.857 901.268 286.529 900.461 285.4C898.308 281.52 894.005 278.637 887.551 276.75C885.801 276.22 884.471 275.75 883.551 275.53L878.211 275.25C876.866 275.13 875.53 274.923 874.211 274.63C872.923 274.343 871.611 274.179 870.291 274.14C866.991 274.11 862.421 275.3 856.631 277.72V277.72Z" fill="white"/>
<path d="M1060.66 349.32C1060.11 348.22 1059.77 347.026 1059.66 345.8V343.38C1059.55 342.645 1059.49 341.903 1059.46 341.16C1059.48 340.585 1059.55 340.013 1059.66 339.45C1059.77 338.955 1059.84 338.454 1059.88 337.95C1060.41 329.763 1060.74 325.533 1060.88 325.26L1062.07 322.85C1062.64 321.419 1063.05 319.93 1063.29 318.41C1063.68 317.164 1064.15 315.948 1064.71 314.77C1064.98 313.05 1065.78 309.77 1067.13 304.77C1068.48 299.77 1069.61 296.65 1070.54 295.1C1071.47 293.55 1072.3 292.31 1072.96 291.38C1073.89 289.76 1074.58 288.56 1074.96 287.74C1076.11 286.704 1077.39 285.823 1078.77 285.12C1079.99 284.06 1080.92 283.19 1081.61 282.51C1082.62 281.228 1083.56 279.893 1084.43 278.51C1086.65 276.489 1088.99 274.602 1091.43 272.86C1093.56 270.97 1095.77 269.18 1098.06 267.43C1100.9 265.27 1103.42 264.21 1105.73 264.21C1107.19 263.39 1108.35 262.79 1109.14 262.39C1110.42 261.661 1111.75 261.051 1113.14 260.57C1114.87 259.51 1116.56 258.42 1118.14 257.36C1120.27 255.87 1122.09 255.14 1123.58 255.14C1124.48 254.811 1125.44 254.674 1126.39 254.74C1128.85 253.424 1131.61 252.795 1134.39 252.92C1137.23 252.92 1139.39 252.99 1140.84 253.12C1141.78 253.39 1142.53 253.59 1143.06 253.72C1145.35 253.85 1147.06 253.92 1148.06 253.92C1150.5 254.203 1152.92 254.61 1155.31 255.14C1161.07 255.94 1164.46 256.643 1165.48 257.25C1166.83 258.328 1167.87 259.752 1168.48 261.37C1169.36 263.063 1169.88 264.924 1169.99 266.83C1169.93 267.801 1169.66 268.747 1169.21 269.609C1168.76 270.47 1168.13 271.227 1167.37 271.83C1166 273.268 1164.13 274.133 1162.14 274.25C1160.92 274.189 1159.7 274.019 1158.5 273.74C1157.32 273.455 1156.11 273.284 1154.89 273.23C1153.61 273.277 1152.32 273.21 1151.05 273.03C1144.78 273.967 1138.45 274.442 1132.11 274.45C1130.78 274.45 1126.82 275.31 1120.25 277.06C1118.25 277.86 1116.68 278.55 1115.62 279.06C1114.13 279.46 1113 279.79 1112.18 280.06C1110.13 281.61 1108.25 283.362 1106.55 285.29C1104.55 286.78 1103.04 287.84 1102.11 288.53C1101.48 289.069 1100.82 289.567 1100.12 290.02C1098.89 291.421 1097.74 292.901 1096.7 294.45C1092.53 299.023 1089.47 302.417 1087.52 304.63C1085.59 306.85 1084.15 311.1 1083.2 317.42C1082.93 319.15 1082.4 323.79 1081.6 331.3C1081.45 332.12 1081.11 333.72 1080.6 336.14C1080.25 337.659 1080.05 339.211 1080 340.77C1080.02 341.397 1080.15 342.014 1080.4 342.59C1080.63 343.101 1080.77 343.65 1080.8 344.21V347.02C1080.85 347.7 1080.99 348.372 1081.2 349.02C1081.44 349.738 1081.58 350.485 1081.62 351.24C1081.58 352.054 1081.48 352.863 1081.31 353.66C1081.14 354.453 1081.04 355.259 1081 356.07C1081.13 358.653 1082.12 361.118 1083.82 363.07C1085.43 364.96 1086.65 366.31 1087.45 367.07C1087.72 367.6 1088.58 369.82 1090.07 373.72C1090.84 375.996 1092.22 378.014 1094.07 379.55C1096.79 381.805 1100.21 383.024 1103.74 382.99C1104.15 382.967 1104.55 382.9 1104.94 382.79H1106.16C1110.29 382.918 1114.39 383.386 1118.44 384.19C1121.79 384.72 1123.08 384.99 1122.26 384.99C1123.06 384.562 1123.96 384.355 1124.87 384.39H1128.51C1129.97 384.52 1131.13 384.59 1131.93 384.59C1132.72 384.125 1133.63 383.915 1134.54 383.99C1137.09 381.99 1142.21 380.99 1149.86 380.99C1151.28 379.782 1153.01 379.014 1154.86 378.78H1155.86C1157.07 378.732 1158.29 378.799 1159.49 378.98C1161.48 379.855 1163.13 381.336 1164.22 383.21C1165.53 385.032 1166.26 387.2 1166.34 389.44C1166.29 391.031 1165.65 392.545 1164.53 393.68L1160.89 397.68C1157.27 399.28 1154.53 400.56 1152.64 401.5L1148.64 402.12C1147.65 402.771 1146.71 403.504 1145.83 404.31C1144.45 405.362 1142.72 405.867 1140.99 405.73H1138.38C1137.58 405.621 1136.77 405.554 1135.96 405.53C1134.34 405.572 1132.77 406.083 1131.44 407C1129.89 408 1128.44 408.86 1127.09 409.7C1124.73 410.387 1122.3 410.803 1119.84 410.94C1117.42 411.5 1116.49 411.78 1117.02 411.78C1115.46 411.668 1113.94 411.296 1112.5 410.68C1111.06 410.048 1109.53 409.672 1107.96 409.57C1106.84 409.622 1105.75 410.009 1104.85 410.68C1104.05 411.279 1103.11 411.658 1102.12 411.78C1100.27 411.615 1098.47 411.138 1096.78 410.37C1095.46 409.761 1094.08 409.285 1092.66 408.95C1092.09 408.966 1091.51 409.032 1090.95 409.15C1090.39 409.277 1089.82 409.351 1089.24 409.37C1086.17 409.376 1083.22 408.219 1080.97 406.13C1079.08 403.58 1077.75 401.63 1076.97 400.3C1076.16 399.173 1075.49 397.95 1074.97 396.66C1073.97 393.98 1073.28 391.94 1072.75 390.52C1072.36 389.406 1071.82 388.352 1071.13 387.39C1070.46 386.59 1069.72 385.856 1068.91 385.2C1066.2 381.133 1064.04 376.724 1062.48 372.09C1062.2 370.63 1061.93 368.61 1061.66 366.09C1061.68 365.677 1061.75 365.269 1061.86 364.87V363.48C1061.86 362.65 1061.8 361.48 1061.66 360.04C1061.52 358.6 1061.46 357.42 1061.46 356.62V354.81C1061.57 354.149 1061.64 353.48 1061.66 352.81C1061.54 351.596 1061.2 350.413 1060.66 349.32V349.32Z" fill="white"/>
<path d="M1208.49 403.6C1207.08 405.179 1205.38 406.482 1203.49 407.44C1202.8 407.84 1202.27 408.17 1201.87 408.44C1199.82 409.253 1197.63 409.667 1195.42 409.66C1193.82 409.66 1192.24 408.77 1190.69 407.04C1189.3 405.638 1188.48 403.766 1188.39 401.79C1188.63 399.946 1189.03 398.126 1189.58 396.35C1190.47 394.781 1191.14 393.099 1191.58 391.35C1192.32 389.615 1193.19 387.943 1194.2 386.35C1195.22 384.774 1195.84 382.977 1196.02 381.11C1195.98 380.748 1195.84 380.404 1195.62 380.11C1195.38 379.827 1195.24 379.478 1195.2 379.11C1195.57 378.292 1195.87 377.446 1196.11 376.58C1196.73 374.78 1197.11 373.47 1197.41 372.65C1199.3 370.79 1200.85 369.24 1202.05 368.02C1202.45 366.02 1202.71 364.47 1202.87 363.38C1203.38 362.2 1203.98 361.06 1204.66 359.97C1205.88 356.62 1206.66 354.6 1206.99 353.97C1207.29 353.409 1207.46 352.786 1207.48 352.15C1208.84 350.282 1210 348.27 1210.92 346.15C1212.11 342.706 1213.53 339.342 1215.15 336.08C1216.22 332.86 1216.95 330.45 1217.37 328.83C1218.84 326.401 1220.45 324.063 1222.2 321.83C1222.31 321.094 1222.37 320.353 1222.4 319.61C1222.79 318.89 1223.26 318.219 1223.8 317.61L1225.22 313.38C1226.95 310.3 1228.3 308.01 1229.22 306.53C1230.04 303.18 1230.58 300.69 1230.84 299.08C1230.97 297.977 1231.24 296.896 1231.64 295.86C1231.98 294.933 1232.25 293.984 1232.46 293.02C1233.66 290.89 1234.63 289.16 1235.37 287.9C1236.2 286.517 1237.11 285.181 1238.09 283.9C1238.86 282.839 1239.74 281.86 1240.71 280.98C1241.92 278.897 1242.6 276.554 1242.71 274.15C1242.58 271.477 1242.1 268.831 1241.29 266.28C1241.04 265.362 1240.97 264.404 1241.09 263.46C1240.82 261.73 1240.69 261.04 1240.69 261.46C1240.75 260.673 1240.92 259.898 1241.2 259.16C1241.53 258.16 1241.78 257.45 1241.91 257.05C1241.93 255.714 1241.86 254.378 1241.71 253.05C1241.84 251.83 1242.71 250.66 1244.22 249.53C1245.45 248.519 1246.96 247.92 1248.54 247.82C1253.11 247.82 1255.86 248.95 1256.81 251.24C1257.73 256.169 1258.4 261.143 1258.81 266.14C1259.34 267.62 1259.81 268.75 1260.2 269.57C1260.47 270.77 1260.67 271.72 1260.8 272.39L1263.44 276.39C1264.17 277.662 1264.77 279.001 1265.24 280.39C1269.67 287.643 1271.88 292.477 1271.89 294.89C1271.86 296.175 1271.76 297.457 1271.58 298.73C1271.41 299.927 1271.32 301.132 1271.29 302.34C1271.27 305.117 1271.54 307.888 1272.09 310.61C1272.9 313.797 1274.64 316.67 1277.09 318.86C1277.69 320.229 1278.16 321.648 1278.51 323.1C1279.44 324.69 1280.33 326.24 1281.13 327.73C1281.97 329.27 1282.45 330.979 1282.53 332.73C1282.95 337.83 1283.9 341.45 1285.45 343.6C1286.49 345.18 1287.74 346.604 1289.18 347.83C1291.6 349.99 1293.1 351.69 1293.72 352.98C1294.26 354.143 1294.89 355.254 1295.63 356.3C1295.76 356.44 1296.36 360.3 1297.45 367.77C1297.9 370.037 1298.72 372.215 1299.87 374.22C1300.24 374.834 1300.71 375.382 1301.26 375.84C1301.84 377.539 1302.25 379.291 1302.48 381.07C1303.47 382.791 1304.54 384.459 1305.7 386.07C1306.56 387.83 1307.3 389.643 1307.92 391.5C1309.11 393.38 1310.27 395.34 1311.33 397.33C1312.02 398.82 1312.33 401.17 1312.33 404.33C1312.38 405.624 1312.14 406.913 1311.62 408.099C1311.1 409.285 1310.32 410.339 1309.33 411.18C1307.33 412.937 1304.74 413.873 1302.08 413.8C1300.62 413.893 1299.16 413.598 1297.85 412.945C1296.55 412.291 1295.43 411.303 1294.63 410.08C1293.03 407.59 1291.55 405.08 1290.22 402.54C1289.93 401.18 1289.73 399.99 1289.6 398.9C1288.4 397.02 1287.45 395.9 1286.78 395.68C1286.46 394.842 1286.26 393.964 1286.18 393.07C1284.96 391.07 1284.1 389.54 1283.57 388.52C1283.04 387.5 1282.41 386.35 1281.75 385C1281.2 383.99 1280.8 382.905 1280.55 381.78C1277.58 377.607 1275.1 375.523 1273.1 375.53C1274.03 375.53 1270.54 376.477 1262.61 378.37C1260.01 378.73 1257.38 378.864 1254.76 378.77C1251.13 379.56 1248.44 380.25 1246.76 380.77C1242.87 381.733 1238.89 382.27 1234.88 382.37C1232.67 382.463 1230.46 382.053 1228.42 381.17C1225.87 379.69 1223.99 378.96 1222.79 378.96L1215.94 379.16C1214.59 379.95 1213.15 380.77 1211.62 381.57C1210.09 382.37 1209.29 383.39 1209.29 384.57C1209.31 384.911 1209.38 385.248 1209.49 385.57V386.77C1209.44 387.45 1209.31 388.122 1209.09 388.77C1208.86 389.489 1208.73 390.236 1208.69 390.99C1208.77 392.047 1208.94 393.094 1209.2 394.12C1209.48 395.274 1209.64 396.453 1209.69 397.64C1209.78 399.695 1209.37 401.74 1208.49 403.6V403.6ZM1226.41 352.85C1226.41 355.13 1228.09 356.28 1231.41 356.28C1231.87 356.142 1232.35 356.075 1232.83 356.08C1234.05 356.165 1235.26 356.366 1236.44 356.68L1239.88 357.48C1246.31 358.01 1251.15 358.37 1254.38 358.48C1255.57 358.538 1256.75 358.709 1257.91 358.99C1259.4 359.32 1260.91 359.491 1262.43 359.5H1264.25C1266.8 358.83 1268.35 357.68 1268.88 356.08C1269.07 354.086 1269.14 352.082 1269.08 350.08C1269.08 347.8 1268 345.18 1265.87 342.23L1265.25 340.01C1264.72 339.134 1264.32 338.188 1264.05 337.2C1263.05 335.98 1262.37 335.05 1261.83 334.38C1261.04 333.16 1260.41 330.28 1260.02 325.71C1259.81 325.019 1259.47 324.374 1259.02 323.81C1258.45 323.08 1258.1 322.202 1258.02 321.28C1258.06 320.866 1258.16 320.461 1258.33 320.08C1258.52 319.628 1258.62 319.148 1258.64 318.66C1258.49 317.931 1258.25 317.223 1257.93 316.55C1257.52 315.697 1257.28 314.774 1257.22 313.83L1256.82 306.83C1254.54 301.063 1251.99 297.907 1249.17 297.36C1247.42 298.58 1246.46 299.24 1246.33 299.36C1244.58 301.601 1243.1 304.037 1241.92 306.62C1241.52 308.5 1241.17 310.03 1240.92 311.25C1238.88 315.076 1237.13 319.05 1235.69 323.14C1234.98 324.404 1234.17 325.611 1233.27 326.75C1232.74 329.03 1232.34 330.75 1232.07 331.89C1231.87 332.842 1231.53 333.761 1231.07 334.62C1230.27 337.3 1229.67 339.39 1229.25 340.85C1229.12 341.12 1228.52 342.4 1227.46 344.69C1226.72 346.33 1226.38 348.122 1226.46 349.92L1226.41 352.85Z" fill="white"/>
<path d="M1385.93 257.74C1387.28 257.59 1389.28 257.3 1391.93 256.86C1393.64 255.522 1395.64 254.595 1397.76 254.15H1408.12C1411.2 255.15 1415.12 256.15 1420 257.15C1421.52 258.126 1423.15 258.934 1424.84 259.56C1425.5 259.7 1425.93 259.9 1426.06 260.16C1427.13 261.309 1428.13 262.517 1429.06 263.78C1429.47 265.608 1429.77 267.458 1429.97 269.32C1430.44 272.727 1430.68 274.633 1430.68 275.04C1430.57 276.799 1430.3 278.543 1429.86 280.25C1429.2 283.25 1428.8 285.09 1428.66 285.88C1428.11 289.213 1427.5 292.163 1426.85 294.73C1426.83 295.6 1426.77 296.468 1426.65 297.33C1425.39 300.706 1423.91 303.993 1422.21 307.17C1421.28 309.057 1419.13 311.74 1415.76 315.22C1413.8 316.796 1412.04 318.614 1410.53 320.63C1410.09 321.326 1409.5 321.92 1408.81 322.371C1408.12 322.823 1407.35 323.123 1406.53 323.25C1404.88 323.521 1403.38 324.376 1402.3 325.66C1400.55 327.66 1399.3 328.81 1398.46 329.08C1396.31 329.88 1395.11 330.34 1394.85 330.48C1389.19 333.56 1386.44 337.86 1386.58 343.34V345.16C1386.58 345.95 1387.66 347.64 1389.81 350.16C1390.49 351.437 1391.45 352.536 1392.63 353.37C1394.4 353.552 1396.15 353.887 1397.86 354.37L1401.48 356.77C1404.49 358.944 1407.66 360.893 1410.95 362.6C1411.77 363.13 1412.95 364.02 1414.58 365.21C1417.13 367.37 1420.95 370.56 1426.07 374.86C1427.95 376.032 1429.76 377.304 1431.5 378.67C1432.29 379.999 1433.17 381.275 1434.12 382.49C1438.12 386.77 1440.28 389.38 1440.57 390.32C1441.77 395.68 1442.37 398.5 1442.37 398.76C1442.45 402.224 1441.69 405.656 1440.15 408.76C1438.42 412.373 1435.75 414.177 1432.15 414.17C1428.15 414.17 1424.43 411.71 1421.08 406.72C1419.97 404.582 1418.63 402.571 1417.08 400.72C1414.41 398.642 1411.86 396.423 1409.43 394.07C1408.87 393.8 1408.28 393.47 1407.61 393.07C1405.49 391.175 1403.13 389.549 1400.61 388.23C1398.08 387.63 1395.64 386.685 1393.36 385.42C1392.24 384.799 1391.38 383.789 1390.94 382.58C1390.53 381.612 1390.07 380.67 1389.54 379.76C1388.44 378.553 1387 377.712 1385.4 377.35C1384.47 377.184 1383.56 376.916 1382.69 376.55C1381.87 375.75 1380.69 374.66 1379.06 373.33C1376.42 371.1 1373.04 369.946 1369.59 370.1C1365.29 370.1 1363.16 373 1363.16 378.77C1363.17 382.437 1363.92 386.064 1365.37 389.43C1366.44 392.54 1366.97 393.87 1366.97 393.43C1366.96 393.909 1366.89 394.386 1366.77 394.85C1366.66 395.238 1366.6 395.637 1366.57 396.04C1366.57 402.227 1363.75 407.393 1358.12 411.54C1357.23 412.184 1356.21 412.602 1355.12 412.76C1353.8 412.809 1352.48 412.705 1351.19 412.45C1350.46 412.25 1349.68 411.39 1348.88 409.84C1348.08 408.29 1347.67 405.78 1347.67 402.3C1347.65 401.887 1347.58 401.478 1347.47 401.08V400.02C1347.66 398.923 1347.92 397.841 1348.26 396.78C1347.73 393.57 1347.47 391.78 1347.47 391.55C1347.52 390.702 1347.65 389.861 1347.86 389.04C1348.09 388.151 1348.23 387.239 1348.26 386.32V383.32C1347.81 382.296 1347.54 381.199 1347.47 380.08C1347.53 379.625 1347.66 379.182 1347.86 378.77C1348.08 378.366 1348.21 377.925 1348.26 377.47C1348.21 376.586 1348.08 375.708 1347.86 374.85C1347.64 373.925 1347.51 372.981 1347.47 372.03C1347.5 371.39 1347.59 370.754 1347.73 370.13C1347.86 369.568 1347.95 368.996 1348 368.42C1348.18 366.53 1348.26 362.9 1348.26 357.53C1348.18 353.965 1347.92 350.407 1347.47 346.87C1347.02 343.323 1346.75 339.755 1346.67 336.18C1346.7 335.265 1346.84 334.356 1347.07 333.47C1347.29 332.645 1347.42 331.801 1347.47 330.95C1347.43 329.566 1347.29 328.187 1347.07 326.82C1346.85 325.523 1346.72 324.214 1346.67 322.9C1346.71 322.081 1346.85 321.269 1347.07 320.48C1347.29 319.69 1347.42 318.878 1347.47 318.06V315.06L1348.02 309.8C1348.38 306.731 1348.51 303.639 1348.4 300.55C1348.49 298.775 1348.77 297.014 1349.24 295.3C1349.71 293.593 1349.99 291.839 1350.08 290.07C1350.06 289.663 1350 289.26 1349.88 288.87V287.45C1349.91 286.334 1350.02 285.222 1350.19 284.12C1350.39 282.73 1350.55 281.75 1350.68 281.22V276.92C1350.97 276.26 1351.37 275.17 1351.9 273.71C1352.03 272.62 1352.3 271.16 1352.7 269.27C1353.65 268.231 1354.46 267.079 1355.12 265.84C1357.4 262.22 1358.75 260.14 1359.12 259.61C1360.02 258.728 1361.1 258.041 1362.27 257.59C1363.45 257.14 1364.71 256.935 1365.97 256.99C1366.71 256.587 1367.55 256.374 1368.39 256.37C1369.37 256.417 1370.35 256.558 1371.3 256.79C1372.26 257.016 1373.24 257.15 1374.22 257.19C1374.54 257.05 1374.88 256.981 1375.22 256.99C1376.45 257.057 1377.66 257.258 1378.84 257.59C1380.03 257.924 1381.24 258.125 1382.47 258.19C1384.57 258.19 1385.79 258.02 1385.93 257.74ZM1395.4 276.32C1394.51 276.293 1393.63 276.152 1392.78 275.9C1391.93 275.67 1391.05 275.536 1390.16 275.5H1388.94C1387.21 276.5 1383.31 277.19 1377.28 277.72C1372.28 277.99 1368.88 279.41 1366.99 281.96C1366.72 282.62 1366.33 283.64 1365.79 284.96C1364.79 286.71 1363.79 288.53 1362.79 290.4C1362.15 292.349 1361.87 294.4 1361.97 296.45C1361.97 297.8 1362.03 299.66 1362.17 302.08C1362.31 304.5 1362.37 306.32 1362.37 307.51C1362.41 308.324 1362.51 309.134 1362.68 309.93C1362.85 310.727 1362.95 311.536 1362.99 312.35C1362.95 313.167 1362.81 313.976 1362.57 314.76C1362.35 315.549 1362.21 316.361 1362.17 317.18V320.18C1362.3 321.51 1362.37 322.53 1362.37 323.18C1362.37 328.007 1364.19 330.423 1367.82 330.43C1369.33 330.498 1370.84 330.225 1372.23 329.63L1374.65 328.21C1376.76 326.451 1378.98 324.834 1381.3 323.37C1382.49 322.861 1383.47 321.985 1384.12 320.87C1384.81 319.72 1385.67 318.41 1386.74 316.92C1387.89 316.081 1388.94 315.107 1389.86 314.02C1390.79 313.051 1391.64 312.004 1392.39 310.89C1392.79 310.23 1393.32 309.41 1393.99 308.47C1394.58 307.843 1395.25 307.301 1395.99 306.86C1397.32 305.26 1399.48 303.047 1402.45 300.22C1403.11 299.8 1403.98 299.27 1405.06 298.61C1407.21 297.25 1409.06 294.04 1410.5 288.94L1411.09 286.52C1411.09 281.02 1407.55 277.59 1400.43 276.25L1395.4 276.32Z" fill="white"/>
<path d="M1555.45 409.66H1552.63C1551.41 409.66 1549.63 409.66 1547.35 409.79C1545.07 409.92 1543.27 409.95 1542.01 409.95C1540.15 409.993 1538.29 410.146 1536.45 410.41C1534.71 410.647 1532.95 410.794 1531.19 410.85C1526.33 410.99 1518.98 411.123 1509.13 411.25C1508.33 411.25 1507.04 411.32 1505.29 411.45C1503.54 411.58 1502.19 411.65 1501.29 411.65C1493.2 411.65 1487.4 410.983 1483.89 409.65C1482.48 408.895 1481.22 407.904 1480.14 406.72C1479.01 405.734 1478.08 404.534 1477.41 403.19C1477.2 401.723 1477.13 400.24 1477.21 398.76V395.52C1477.32 393.804 1477.63 392.107 1478.12 390.46C1478.61 388.833 1478.92 387.156 1479.03 385.46V378.19C1478.59 377.834 1478.3 377.328 1478.21 376.77C1478.41 375.541 1478.68 374.325 1479.03 373.13C1478.99 372.34 1478.86 371.558 1478.63 370.8C1478.41 370.12 1478.26 369.415 1478.21 368.7C1478.31 366.75 1478.61 364.815 1479.12 362.93C1479.57 361.381 1479.87 359.795 1480.03 358.19C1480.13 354.94 1479.54 351.707 1478.3 348.7C1477.66 347.663 1477.17 346.542 1476.84 345.37C1476.26 343.351 1475.84 341.292 1475.57 339.21C1475.2 337.21 1475 336.39 1475 336.79C1475.16 335.964 1475.47 335.174 1475.91 334.46C1476.5 333.33 1476.81 331 1476.81 327.46C1476.86 325.918 1477.24 324.405 1477.92 323.02C1478.49 321.953 1478.87 320.791 1479.03 319.59C1478.99 319.193 1478.85 318.811 1478.63 318.48C1478.43 318.208 1478.29 317.899 1478.21 317.57C1478.26 317.11 1478.41 316.664 1478.63 316.26C1478.84 315.844 1478.98 315.394 1479.03 314.93C1478.75 312.608 1478.69 310.265 1478.83 307.93C1478.68 306.951 1478.41 305.997 1478.01 305.09C1477.67 303.978 1477.53 302.812 1477.61 301.65C1477.59 301.013 1477.52 300.378 1477.41 299.75C1477.3 299.112 1477.24 298.467 1477.21 297.82C1477.3 296.304 1477.61 294.809 1478.12 293.38C1478.6 292.038 1478.93 290.651 1479.12 289.24C1479.19 288.37 1479.3 287 1479.43 285.11C1479.48 284.591 1479.59 284.079 1479.74 283.58C1479.91 283.024 1480.01 282.45 1480.03 281.87C1480.03 281.08 1479.39 279.21 1478.12 276.31C1477.03 274.127 1476.38 271.747 1476.22 269.31C1476.22 269.17 1476.55 267.75 1477.22 265.07C1477.36 264.27 1477.6 263.12 1477.93 261.63C1478.37 260.021 1479.42 258.648 1480.86 257.8C1482.2 256.815 1483.81 256.251 1485.47 256.18C1486.07 256.027 1486.68 255.96 1487.29 255.98H1489.29C1489.92 256.294 1490.6 256.497 1491.29 256.58C1492.06 256.519 1492.81 256.315 1493.5 255.98H1503.12C1504.43 255.288 1505.89 254.943 1507.36 254.98C1507.76 254.76 1509.88 254.65 1513.79 254.65C1515.22 254.469 1516.64 254.178 1518.02 253.78C1520.62 254.178 1523.24 254.385 1525.87 254.4C1526.01 254.4 1526.87 254.34 1528.49 254.18C1529.44 253.516 1530.57 253.166 1531.73 253.18C1532.25 253.033 1532.78 252.965 1533.32 252.98H1538.98C1539.78 252.52 1542.59 252.27 1547.43 252.27C1548.95 251.963 1550.51 251.846 1552.06 251.92L1552.86 251.56C1554.21 251.56 1556.86 252.5 1560.73 254.34C1562.65 254.784 1564.54 255.382 1566.36 256.13C1568.25 257.33 1569.18 259.7 1569.18 263.27L1567.56 267.22C1566.89 269.078 1565.94 270.821 1564.74 272.39C1562.99 272.897 1560.44 273.753 1557.09 274.96C1556.31 275.482 1555.41 275.824 1554.48 275.96C1552.94 275.827 1551.39 275.827 1549.84 275.96C1546.63 276.65 1545.08 276.96 1545.21 276.96C1543.05 276.909 1540.9 276.739 1538.76 276.45C1536.63 276.166 1534.48 275.996 1532.32 275.94C1531.54 275.97 1530.77 276.047 1530 276.17C1529 276.28 1528.29 276.34 1527.89 276.34C1526.8 276.34 1525.27 276.43 1523.26 276.56C1522.59 276.7 1521.7 276.9 1520.64 277.16C1516.56 277.636 1512.46 277.837 1508.35 277.76C1508.62 277.76 1507.2 277.96 1504.12 278.36C1501.27 278.611 1498.45 279.079 1495.67 279.76C1492.57 280.98 1491.04 283.04 1491.04 285.99C1491.09 287.918 1491.49 289.821 1492.23 291.6C1492.74 292.697 1493.15 293.838 1493.45 295.01C1493.3 296.069 1492.88 297.071 1492.23 297.92C1491.6 298.838 1491.21 299.907 1491.12 301.02V309.85C1491.16 310.855 1491.4 311.841 1491.83 312.75C1492.18 313.48 1492.42 314.259 1492.54 315.06C1493.33 319.06 1496.54 321.06 1502.03 321.06H1511.32C1512.16 321.031 1513 320.927 1513.82 320.75C1514.98 320.55 1515.77 320.39 1516.24 320.26C1516.74 320.126 1517.25 320.059 1517.77 320.06C1518.76 320.11 1519.75 320.274 1520.7 320.55C1521.65 320.842 1522.63 321.013 1523.62 321.06H1526.62C1527.68 320.546 1528.87 320.338 1530.04 320.46C1530.86 319.64 1532.61 319.24 1535.29 319.24H1536.91C1538.13 319.277 1539.34 319.38 1540.55 319.55C1541.75 319.721 1542.97 319.824 1544.18 319.86C1545.65 319.638 1547.14 319.564 1548.62 319.64C1549.06 319.613 1549.5 319.546 1549.93 319.44C1550.37 319.333 1550.81 319.266 1551.26 319.24C1551.71 319.287 1552.15 319.391 1552.57 319.55C1552.9 319.672 1553.23 319.776 1553.57 319.86L1559.14 320.26C1559.39 320.133 1559.66 320.065 1559.94 320.06C1560.93 320.377 1561.93 320.644 1562.94 320.86C1566.7 321.793 1568.58 324.41 1568.59 328.71C1568.62 330.495 1568.3 332.269 1567.64 333.928C1566.98 335.588 1566 337.101 1564.75 338.38C1564.33 338.64 1563.75 338.97 1562.94 339.38C1561.73 340.656 1560.39 341.8 1558.94 342.79C1555.95 344.345 1552.63 345.174 1549.25 345.21C1548.96 345.21 1547.59 344.99 1545.1 344.5C1542.46 344.014 1539.78 343.777 1537.1 343.79C1536.34 343.843 1535.59 344.015 1534.88 344.3C1534.18 344.583 1533.43 344.755 1532.67 344.81H1525.79C1524.44 344.48 1522.6 344.05 1520.25 343.54C1516.82 342.95 1513.33 342.699 1509.85 342.79C1507.31 343.052 1504.8 343.596 1502.38 344.41C1498.61 345.47 1496.38 346.36 1495.9 347.03C1495.77 347.163 1495.37 347.693 1494.7 348.62L1494.28 352.46C1494.02 353.356 1493.69 354.229 1493.28 355.07C1492.81 356.004 1492.53 357.025 1492.46 358.07C1492.46 359.29 1493.33 361.51 1495.04 364.72C1495.61 365.72 1495.9 367.54 1495.9 370.36C1495.94 370.841 1496.03 371.315 1496.19 371.77C1496.37 372.293 1496.47 372.838 1496.5 373.39V378.83C1496.5 383.93 1499.04 386.48 1504.11 386.48C1505.25 386.442 1506.39 386.339 1507.52 386.17C1508.64 386.001 1509.78 385.904 1510.91 385.88C1511.97 386.154 1513.05 386.355 1514.13 386.48C1514.66 386.17 1516.66 386.03 1520.13 386.03C1520.59 385.919 1521.05 385.868 1521.52 385.88H1525.52C1526.45 385.21 1528.11 384.88 1530.52 384.88C1530.86 384.892 1531.2 384.959 1531.52 385.08H1532.71C1535.58 385.314 1538.46 385.388 1541.34 385.3C1541.59 385.167 1541.86 385.092 1542.14 385.08C1542.63 385.148 1543.1 385.289 1543.54 385.5C1543.98 385.703 1544.45 385.838 1544.93 385.9H1548.75C1548.99 385.611 1549.3 385.385 1549.65 385.242C1550 385.099 1550.38 385.043 1550.75 385.08C1551.6 385.134 1552.44 385.275 1553.26 385.5C1554.08 385.714 1554.92 385.848 1555.76 385.9H1563.19C1565.05 386.033 1567.32 387.097 1570 389.09C1570.57 389.5 1571.02 390.041 1571.34 390.666C1571.65 391.291 1571.8 391.982 1571.79 392.68C1571.79 397.74 1571.2 401 1569.98 402.46C1568.39 403.877 1566.7 405.181 1564.92 406.36C1562.35 408.16 1560.73 409.07 1560.06 409.07L1555.45 409.66Z" fill="white"/>
<path d="M1619.55 341.27C1618.42 341.096 1617.28 340.992 1616.14 340.96C1610.91 340.96 1607.6 340.63 1606.27 339.96C1603.99 338.74 1602.86 335.8 1602.86 331.09C1602.92 329.165 1603.12 327.246 1603.46 325.35C1603.8 323.453 1603.99 321.535 1604.05 319.61V315.79L1604.85 312.58C1606.07 306.66 1606.94 302.16 1607.47 299.08C1608.97 295.959 1610.66 292.931 1612.52 290.01C1613.06 288.81 1613.46 287.86 1613.72 287.19L1616.72 282.56C1617.11 281.71 1617.45 280.835 1617.72 279.94C1619.12 277.946 1620.66 276.064 1622.35 274.31C1625.83 271.49 1628.45 269.743 1630.2 269.07C1631.53 267.59 1632.55 266.46 1633.2 265.64C1634.43 264.507 1635.77 263.502 1637.2 262.64C1638.8 261.84 1640.42 261.09 1642.04 260.42C1643.63 259.09 1644.85 258.01 1645.65 257.21C1648.2 255.59 1650.35 254.79 1652.1 254.79H1654.72C1655.21 254.742 1655.68 254.638 1656.14 254.48C1656.66 254.304 1657.2 254.2 1657.74 254.17C1657.6 254.17 1658.89 254.26 1661.57 254.39C1662.8 253.944 1664.09 253.668 1665.39 253.57C1665.85 253.432 1666.33 253.364 1666.81 253.37C1668.61 253.457 1670.4 253.725 1672.15 254.17C1673.89 254.635 1675.67 254.91 1677.47 254.99C1679.43 254.906 1681.39 255.04 1683.32 255.39C1684.26 255.66 1685.94 256.19 1688.32 257.01C1689.03 257.493 1689.7 258.028 1690.32 258.61C1691.25 259.29 1691.91 259.76 1692.32 260.02C1692.88 260.737 1693.29 261.56 1693.52 262.44C1694.39 263.924 1694.94 265.572 1695.14 267.28C1695.14 275.32 1691.05 279.347 1682.86 279.36C1680.75 279.02 1678.69 278.447 1676.71 277.65C1674.15 276.649 1671.45 276.065 1668.71 275.92C1667.77 275.951 1666.83 276.054 1665.9 276.23C1664.96 276.405 1664.01 276.509 1663.06 276.54C1662.13 276.54 1660.64 276.43 1658.65 276.23C1656.66 276.03 1655.08 275.92 1654.01 275.92C1651.2 275.875 1648.46 276.723 1646.16 278.34C1643.86 279.94 1641.53 281.6 1639.16 283.34C1636.79 285.08 1634.86 286.34 1633.51 287.13C1632.24 288.275 1631.04 289.483 1629.89 290.75C1628.17 292.201 1626.36 293.537 1624.46 294.75C1623.55 296.787 1622.93 298.946 1622.64 301.16C1622.51 301.43 1622.11 302.09 1621.42 303.16C1620.87 303.928 1620.52 304.828 1620.42 305.77C1620.45 307.746 1621.09 309.665 1622.24 311.27C1622.68 312.067 1623.31 312.736 1624.09 313.211C1624.86 313.687 1625.74 313.952 1626.65 313.98L1631.09 313.78C1631.96 313.337 1632.94 313.13 1633.91 313.18C1635.12 313.18 1636.83 313.27 1639.05 313.47C1641.27 313.67 1642.91 313.78 1643.99 313.78C1644.65 313.345 1645.43 313.135 1646.21 313.18C1647.48 312.422 1648.95 312.073 1650.42 312.18C1652.3 311.948 1654.19 311.815 1656.08 311.78C1659.35 310.495 1662.72 309.491 1666.15 308.78C1667.77 307.762 1669.67 307.266 1671.58 307.36C1672.25 306.968 1673.02 306.764 1673.8 306.77C1674.62 306.829 1675.44 307 1676.21 307.28C1676.99 307.556 1677.81 307.728 1678.63 307.79C1684.53 308.58 1687.7 309.05 1688.1 309.18C1689.18 310.03 1690.19 310.973 1691.1 312C1692.99 313.48 1694.39 314.55 1695.34 315.24C1696.11 316.492 1696.72 317.836 1697.16 319.24C1698.26 321.153 1699.6 322.912 1701.16 324.47C1703.84 331.32 1705.16 335.47 1705.16 336.78C1705.16 337.31 1705.09 338.18 1704.96 339.4C1704.85 340.266 1704.78 341.137 1704.76 342.01V343.21C1704.87 343.608 1704.94 344.017 1704.96 344.43C1705 346.44 1704.4 348.41 1703.25 350.06C1702.1 351.68 1701.52 352.68 1701.52 353.06C1701.19 355.33 1700.99 357.617 1700.92 359.91C1700.12 362.86 1699.44 365.08 1698.92 366.56L1698.13 370.18C1697.99 370.46 1697.04 372.18 1695.31 375.32C1694.4 377.086 1693.4 378.801 1692.31 380.46C1691.45 381.178 1690.5 381.783 1689.48 382.26C1686.5 385.916 1683.13 389.227 1679.41 392.13C1677.86 394.349 1676.43 396.649 1675.12 399.02C1672.86 400.353 1670.42 401.363 1667.87 402.02C1666.81 402.84 1666.08 403.43 1665.66 403.83C1660.9 406.436 1655.82 408.406 1650.55 409.69C1649.56 409.987 1648.59 410.358 1647.65 410.8C1646.54 411.316 1645.34 411.614 1644.12 411.68C1643.1 411.65 1642.11 411.301 1641.29 410.68C1640.68 410.197 1640.01 409.794 1639.29 409.48C1631.75 407.06 1627.41 405.48 1626.19 404.84C1625.22 404.316 1624.28 403.738 1623.37 403.11C1622.7 402.65 1620.55 402.11 1616.92 401.61C1613.83 401.21 1611.92 400.48 1611.28 399.39C1610.77 398.645 1610.37 397.83 1610.09 396.97C1608.6 393.97 1607.87 392.14 1607.87 391.34C1608 389.13 1608.47 386.953 1609.27 384.89C1609.67 383.29 1609.93 382.07 1610.09 381.27C1610.57 380.322 1611.17 379.444 1611.88 378.66C1613.37 376.37 1614.77 375.22 1616.12 375.22H1621.95C1623.7 375.22 1626.73 376.727 1631.02 379.74C1632.39 380.562 1633.8 381.309 1635.25 381.98C1637.14 383.49 1638.6 384.64 1639.69 385.46C1643.03 386.746 1646.59 387.371 1650.16 387.3C1651.53 386.86 1652.95 386.595 1654.39 386.51C1657.1 385.704 1659.77 384.763 1662.39 383.69C1663.94 382.424 1665.37 381.004 1666.63 379.45C1668.51 378.12 1669.97 377.1 1671.06 376.45C1674.77 373.362 1678.03 369.763 1680.73 365.76C1684.21 360.527 1685.95 356.507 1685.96 353.7C1686.05 351.04 1685.71 348.383 1684.96 345.83C1684.7 344.76 1683.17 342.68 1680.35 339.6C1677.53 336.52 1675.71 334.78 1674.89 334.45C1674.13 334.121 1673.31 333.947 1672.48 333.94C1671.64 333.964 1670.8 334.031 1669.97 334.14C1669.13 334.268 1668.29 334.342 1667.44 334.36C1666.65 334.36 1665.44 334.3 1663.72 334.14C1662 333.98 1660.79 333.94 1659.99 333.94C1658.45 334.032 1656.93 334.339 1655.47 334.85C1654 335.363 1652.47 335.669 1650.92 335.76C1649.58 335.712 1648.25 335.778 1646.92 335.96C1645.83 336.49 1645.04 336.96 1644.5 337.18C1641.41 338.375 1638.15 339.051 1634.84 339.18C1633.18 339.477 1631.56 339.943 1630 340.57C1627.66 341.328 1625.21 341.666 1622.75 341.57C1621.68 341.532 1620.61 341.432 1619.55 341.27V341.27Z" fill="white"/>
<path d="M1751.8 407.84C1761.26 407.84 1768.92 400.175 1768.92 390.72C1768.92 381.265 1761.26 373.6 1751.8 373.6C1742.35 373.6 1734.68 381.265 1734.68 390.72C1734.68 400.175 1742.35 407.84 1751.8 407.84Z" fill="white"/>
</svg>
